<svg xmlns="http://www.w3.org/2000/svg" xmlns:xlink="http://www.w3.org/1999/xlink" viewBox="0 0 582.37 407"><defs><style>.cls-1{fill:#56616e;}.cls-2{fill:#c18775;}.cls-3{fill:#2cc3d5;}.cls-4{fill:#daf2f4;}.cls-5{fill:#2498a8;opacity:0.25;}.cls-18,.cls-21,.cls-5,.cls-55,.cls-6,.cls-60,.cls-66,.cls-71,.cls-78,.cls-79,.cls-80{isolation:isolate;}.cls-57,.cls-6,.cls-90{fill:#fff;}.cls-6,.cls-66{opacity:0.2;}.cls-7{fill:#167582;}.cls-8{fill:#607b99;}.cls-9,.cls-91{fill:#f66689;}.cls-11,.cls-73,.cls-9{fill-rule:evenodd;}.cls-10,.cls-18{opacity:0.3;}.cls-11,.cls-28,.cls-60{fill:#d2dfe6;}.cls-12,.cls-66{fill:#2c2a46;}.cls-13,.cls-15,.cls-18,.cls-21,.cls-26,.cls-32,.cls-39,.cls-40,.cls-42,.cls-43,.cls-44,.cls-49,.cls-53,.cls-54,.cls-56,.cls-61,.cls-67,.cls-72,.cls-74,.cls-75{fill:none;}.cls-13,.cls-15,.cls-72{stroke:#fdc2bf;}.cls-13,.cls-15,.cls-18,.cls-26,.cls-32,.cls-39,.cls-42,.cls-43,.cls-44,.cls-49,.cls-53,.cls-56,.cls-72,.cls-74,.cls-75{stroke-linecap:round;stroke-linejoin:round;}.cls-13{stroke-width:15.56px;}.cls-14{fill:#98646d;}.cls-15{stroke-width:10.72px;}.cls-16{fill:#fdc2bf;}.cls-17{fill:#a8bdf9;}.cls-18,.cls-21{stroke:#d3defc;}.cls-18{stroke-width:0.65px;}.cls-19{fill:#9ab1f4;}.cls-20{fill:#b1c4f8;}.cls-21,.cls-40,.cls-54,.cls-61,.cls-67{stroke-miterlimit:10;}.cls-21{stroke-width:0.71px;}.cls-21,.cls-60,.cls-68,.cls-70,.cls-71{opacity:0.5;}.cls-22{fill:#00c6d7;}.cls-23{fill:#f5f8f9;}.cls-24{fill:#f4b1af;}.cls-25{fill:#e2aab7;}.cls-26{stroke:#00c6d7;stroke-width:16.86px;}.cls-27,.cls-68{fill:#167491;}.cls-29{fill:#262c39;}.cls-30{fill:#202c44;}.cls-31{fill:#1a2437;}.cls-32{stroke:#cb9685;}.cls-32,.cls-43{stroke-width:16.76px;}.cls-33{fill:#0f1622;}.cls-34{fill:#cb9685;}.cls-35{fill:#e29e6c;}.cls-36{fill:#e8aa7d;}.cls-37{fill:#ccd6e5;}.cls-38{fill:#28adbf;}.cls-39,.cls-42{stroke:#2cc3d5;}.cls-39{stroke-width:18.16px;}.cls-40,.cls-54{stroke:#fff;}.cls-40{stroke-width:0.9px;}.cls-41{fill:#bf7d68;}.cls-42{stroke-width:20.96px;}.cls-43,.cls-53{stroke:#f3c29f;}.cls-44{stroke:#8ca0b3;stroke-width:1.4px;}.cls-45{fill:#b9cbd3;}.cls-46{fill:#f3c29f;}.cls-47{fill:#df9965;}.cls-48{fill:#8ca0b3;}.cls-49{stroke:#f66689;stroke-width:1.99px;}.cls-50{fill:#a8c1cc;}.cls-51{fill:#517bf2;}.cls-52{fill:#496fda;}.cls-53{stroke-width:12.57px;}.cls-54{stroke-width:0.85px;}.cls-55{fill:#476dd8;opacity:0.6;}.cls-56{stroke:#517bf2;stroke-width:13.97px;}.cls-58{fill:#f8fbfb;}.cls-59{opacity:0.9;}.cls-61{stroke:#202c44;stroke-width:3.96px;}.cls-62{fill:#343c4c;}.cls-63{fill:#facfb1;}.cls-64{fill:#4474e0;}.cls-65{fill:#e4a373;}.cls-67{stroke:#bed42b;stroke-width:1.22px;}.cls-69{fill:#ebeef5;}.cls-71{fill:#87dde8;}.cls-72{stroke-width:15.07px;}.cls-73,.cls-86{fill:#21cc79;}.cls-74{stroke:#d2dfe6;}.cls-74,.cls-75{stroke-width:0.78px;}.cls-75{stroke:#b9cbd3;}.cls-76{fill:#81a5d6;}.cls-77,.cls-78,.cls-79,.cls-80{opacity:0.55;}.cls-78{fill:#7bbc9d;}.cls-79{fill:#99cab1;}.cls-80{fill:#7698bd;}.cls-81{fill:#477b74;}.cls-82{fill:#90e6bc;}.cls-83{fill:#a6e8c5;}.cls-84{fill:url(#Gradiente_sem_nome_82);}.cls-85{fill:#a7d1c0;}.cls-87{fill:#86c4c3;}.cls-88{fill:#008767;}.cls-89{fill:#5079af;}.cls-90{opacity:0.28;}</style><linearGradient id="Gradiente_sem_nome_82" x1="483.16" y1="219.83" x2="534.54" y2="219.83" gradientUnits="userSpaceOnUse"><stop offset="0" stop-color="#90e6bc"/><stop offset="1" stop-color="#21cc79"/></linearGradient></defs><g id="Camada_2" data-name="Camada 2"><g id="Camada_1-2" data-name="Camada 1"><path class="cls-1" d="M499.77,57.44a.84.84,0,0,1-.78-.53l-8-19.38-8,19.38a.85.85,0,0,1-1.57-.64L490.23,35a.84.84,0,0,1,1.56,0l8.76,21.29a.84.84,0,0,1-.46,1.1A.71.71,0,0,1,499.77,57.44Z"/><path class="cls-2" d="M491.8,41a3.47,3.47,0,1,0-4.18-2.58A3.47,3.47,0,0,0,491.8,41Z"/><path class="cls-3" d="M471.29,85.62,471,52.47a5.14,5.14,0,0,1,5.1-5.18l29.41-.23a5.15,5.15,0,0,1,5.18,5.11L511,85.32a5.14,5.14,0,0,1-5.1,5.18l-29.41.23A5.15,5.15,0,0,1,471.29,85.62Z"/><path class="cls-4" d="M504.69,86.44l-27.09.21a2.23,2.23,0,0,1-2.25-2.22l-.23-30.83a2.23,2.23,0,0,1,2.21-2.25l27.09-.21a2.23,2.23,0,0,1,2.25,2.22l.23,30.83A2.23,2.23,0,0,1,504.69,86.44Z"/><path class="cls-3" d="M495,60.08a21.14,21.14,0,0,0-4.2-.42,11.65,11.65,0,0,0-6,1.28c-2.67,1.68-3,5.21-2.91,7.16s.52,4.83,2.34,6.76c1.45,1.54,4.75,2.37,7.12,2.38a1.29,1.29,0,0,1,.51.1,1.46,1.46,0,0,1,.44.29,1.34,1.34,0,0,1,.29.45,1.31,1.31,0,0,1,.11.52v.92a.2.2,0,0,0,0,.09.13.13,0,0,0,.07.06.14.14,0,0,0,.09,0,.13.13,0,0,0,.08,0c.76-.68,1.57-1.42,2.37-2.17l.6-.56a17.29,17.29,0,0,0,2.63-2.81,9.72,9.72,0,0,0,1.56-4.3A15.09,15.09,0,0,0,500,65,6,6,0,0,0,495,60.08Z"/><path class="cls-5" d="M500.18,68.89a7.74,7.74,0,0,1-1.55,3.72A16.77,16.77,0,0,1,496,75l-.6.49c-.8.65-1.08.86-1.85,1.45l-.07,0h-.08l-.07,0,0-.07-.11-.75c0-.65-1-.8-1.76-.8-2.37,0-5.66-.72-7.12-2.06A8.23,8.23,0,0,1,482,67.42v.64c.06,2,.52,4.83,2.34,6.76,1.46,1.54,4.75,2.37,7.12,2.38a1.34,1.34,0,0,1,.52.1,1.42,1.42,0,0,1,.43.29,1.37,1.37,0,0,1,.3.45,1.3,1.3,0,0,1,.1.52v.92a.16.16,0,0,0,0,.09.12.12,0,0,0,.06.06.14.14,0,0,0,.09,0,.12.12,0,0,0,.08,0c.76-.67,1.57-1.41,2.37-2.16l.6-.56a18.25,18.25,0,0,0,2.64-2.81,10,10,0,0,0,1.56-4.3,14.74,14.74,0,0,0,.11-2.2A9.83,9.83,0,0,1,500.18,68.89Z"/><path class="cls-6" d="M491.86,62.07c1.14.4,3,.45,4.35,1.36.52.34,1.27.52,1.47.19s.17-.85-.54-1.4-1.59-1.09-4.48-1.41C491.43,60.67,491,61.77,491.86,62.07Z"/><path class="cls-6" d="M498,65.47a.63.63,0,0,0,.62-.63.62.62,0,1,0-1.24,0A.63.63,0,0,0,498,65.47Z"/><path class="cls-7" d="M487.4,68.26a.72.72,0,1,0-.71-.72A.72.72,0,0,0,487.4,68.26Z"/><path class="cls-7" d="M494.82,68.26a.72.72,0,1,0-.71-.72A.72.72,0,0,0,494.82,68.26Z"/><path class="cls-7" d="M491.14,71.65a2.62,2.62,0,0,1-2.29-1,.34.34,0,0,1,0-.2.21.21,0,0,1,.11-.15.17.17,0,0,1,.1,0h.1l.09,0,.06.08a2.2,2.2,0,0,0,1.83.67,2.1,2.1,0,0,0,1.85-.71.27.27,0,0,1,.14-.14.23.23,0,0,1,.2,0,.27.27,0,0,1,.14.14.23.23,0,0,1,0,.2A2.49,2.49,0,0,1,491.14,71.65Z"/><path class="cls-1" d="M543.23,57.44a.85.85,0,0,1-.78-.53l-8-19.38-8,19.38a.84.84,0,1,1-1.56-.64L533.7,35a.84.84,0,0,1,.78-.52.85.85,0,0,1,.78.52L544,56.27a.85.85,0,0,1-.46,1.1A.78.78,0,0,1,543.23,57.44Z"/><path class="cls-2" d="M535.27,41a3.47,3.47,0,1,0-4.18-2.58A3.48,3.48,0,0,0,535.27,41Z"/><path class="cls-3" d="M514.76,85.62l-.25-33.15a5.14,5.14,0,0,1,5.1-5.18l29.4-.23a5.16,5.16,0,0,1,5.19,5.11l.25,33.15a5.15,5.15,0,0,1-5.11,5.18l-29.4.23A5.15,5.15,0,0,1,514.76,85.62Z"/><path class="cls-4" d="M548.15,86.44l-27.08.21a2.23,2.23,0,0,1-2.25-2.22l-.24-30.83a2.23,2.23,0,0,1,2.22-2.25l27.08-.21a2.24,2.24,0,0,1,2.26,2.22l.23,30.83A2.23,2.23,0,0,1,548.15,86.44Z"/><path class="cls-1" d="M456.3,57.44a.84.84,0,0,1-.78-.53l-8-19.38-8,19.38a.84.84,0,0,1-1.56-.64L446.76,35a.85.85,0,0,1,1.57,0l8.75,21.29a.83.83,0,0,1-.46,1.1A.71.71,0,0,1,456.3,57.44Z"/><path class="cls-2" d="M448.34,41a3.47,3.47,0,1,0-4.18-2.58A3.49,3.49,0,0,0,448.34,41Z"/><path class="cls-3" d="M427.83,85.62l-.25-33.15a5.13,5.13,0,0,1,5.1-5.18l29.4-.23a5.15,5.15,0,0,1,5.18,5.11l.26,33.15a5.15,5.15,0,0,1-5.11,5.18l-29.4.23A5.15,5.15,0,0,1,427.83,85.62Z"/><path class="cls-4" d="M461.25,86.44l-27.09.21a2.23,2.23,0,0,1-2.25-2.22l-.23-30.83a2.23,2.23,0,0,1,2.21-2.25L461,51.14a2.23,2.23,0,0,1,2.25,2.22l.24,30.83A2.24,2.24,0,0,1,461.25,86.44Z"/><path class="cls-3" d="M538.57,60.8a20.28,20.28,0,0,0-4.1-.4,11.51,11.51,0,0,0-5.83,1.24c-2.61,1.64-2.9,5.07-2.84,7s.5,4.7,2.28,6.57c1.43,1.51,4.65,2.32,7,2.32a1.35,1.35,0,0,1,.93.38,1.46,1.46,0,0,1,.29.44,1.45,1.45,0,0,1,.1.51v.9a.31.31,0,0,0,0,.08l.07.06h.08a.2.2,0,0,0,.08,0c.75-.66,1.54-1.37,2.32-2.11l.58-.54a17.35,17.35,0,0,0,2.58-2.73,9.64,9.64,0,0,0,1.52-4.19,14.3,14.3,0,0,0-.17-4.66A5.91,5.91,0,0,0,538.57,60.8Z"/><path class="cls-5" d="M543.5,69.38A7.53,7.53,0,0,1,542,73a16.42,16.42,0,0,1-2.58,2.36l-.58.48c-.78.63-1.06.83-1.81,1.4a.09.09,0,0,1-.07,0s-.05,0-.07,0a.18.18,0,0,1-.07,0,.21.21,0,0,1,0-.07l-.11-.73c0-.63-1-.77-1.72-.77-2.31,0-5.53-.71-7-2A8,8,0,0,1,525.7,68v.62c.06,2,.51,4.7,2.28,6.57,1.43,1.51,4.65,2.32,7,2.32a1.24,1.24,0,0,1,.5.1,1.26,1.26,0,0,1,.43.29,1.42,1.42,0,0,1,.29.43,1.25,1.25,0,0,1,.1.51v.9a.11.11,0,0,0,0,.08.12.12,0,0,0,.06.06h.09l.07,0c.75-.66,1.54-1.37,2.32-2.1l.58-.55A17.35,17.35,0,0,0,542,74.42a9.4,9.4,0,0,0,1.52-4.19,14,14,0,0,0,.12-2.14A11.27,11.27,0,0,1,543.5,69.38Z"/><path class="cls-6" d="M535.37,62.74c1.12.39,2.89.44,4.25,1.33.51.32,1.24.5,1.44.18s.16-.83-.53-1.36-1.55-1.07-4.38-1.37C535,61.38,534.52,62.45,535.37,62.74Z"/><path class="cls-6" d="M541.36,66.05a.61.61,0,0,0,0-1.22.61.61,0,0,0,0,1.22Z"/><path class="cls-7" d="M531,68.76a.7.7,0,1,0-.69-.7A.69.69,0,0,0,531,68.76Z"/><path class="cls-7" d="M538.26,68.76a.7.7,0,1,0-.69-.7A.69.69,0,0,0,538.26,68.76Z"/><path class="cls-8" d="M539.81,63.38a4.59,4.59,0,0,0-3.08,1.19,4.77,4.77,0,0,0-1.53,3c-.21,0-.41,0-.62,0h-.32a4.79,4.79,0,0,0-1.69-3.1,4.62,4.62,0,0,0-6.44.55,4.81,4.81,0,0,0,.3,6.57,4.6,4.6,0,0,0,3.23,1.3,4.67,4.67,0,0,0,3.23-1.34,4.76,4.76,0,0,0,1.4-3.24h.29a3.88,3.88,0,0,1,.59,0,4.74,4.74,0,0,0,.86,2.58,4.61,4.61,0,0,0,4.78,1.88,4.67,4.67,0,0,0,2.34-1.33,4.78,4.78,0,0,0-.77-7.23A4.62,4.62,0,0,0,539.81,63.38ZM529.65,72.1a3.84,3.84,0,0,1-2.18-.67A4,4,0,0,1,526,69.64a4.06,4.06,0,0,1-.22-2.31,4,4,0,0,1,1.07-2,3.9,3.9,0,0,1,4.29-.86,3.93,3.93,0,0,1,1.76,1.47,4,4,0,0,1-.49,5A3.91,3.91,0,0,1,529.65,72.1Zm10.16,0a3.88,3.88,0,0,1-2.18-.68,4,4,0,0,1-1.44-1.79,4.06,4.06,0,0,1-.22-2.31,4,4,0,0,1,1.08-2,3.87,3.87,0,0,1,2-1.09,3.93,3.93,0,0,1,2.27.23,3.88,3.88,0,0,1,1.76,1.47,4.06,4.06,0,0,1,.36,3.75,4,4,0,0,1-.86,1.29,3.83,3.83,0,0,1-2.78,1.17Z"/><path class="cls-7" d="M535.78,71.26h-2.1a.19.19,0,0,0-.11.34,1.57,1.57,0,0,0,1.16.58,1.61,1.61,0,0,0,1.16-.58A.19.19,0,0,0,535.78,71.26Z"/><path class="cls-3" d="M451.12,60.81a20.39,20.39,0,0,0-4.19-.41,11.93,11.93,0,0,0-6,1.25c-2.67,1.65-3,5.12-2.91,7s.52,4.74,2.34,6.63c1.46,1.52,4.75,2.34,7.12,2.34a1.55,1.55,0,0,1,.52.1,1.42,1.42,0,0,1,.43.29,1.43,1.43,0,0,1,.3.44,1.29,1.29,0,0,1,.1.51v.91a.16.16,0,0,0,0,.09.15.15,0,0,0,.06,0,.15.15,0,0,0,.09,0,.2.2,0,0,0,.08,0c.76-.67,1.57-1.39,2.37-2.13.2-.17.4-.36.6-.55a18,18,0,0,0,2.64-2.76,9.67,9.67,0,0,0,1.56-4.23,14.55,14.55,0,0,0-.17-4.7A6,6,0,0,0,451.12,60.81Z"/><path class="cls-5" d="M456.27,69.46a7.49,7.49,0,0,1-1.56,3.66,17.47,17.47,0,0,1-2.63,2.39l-.6.47c-.8.65-1.09.85-1.85,1.43l-.08,0h-.08l-.06-.05a.09.09,0,0,1,0-.07l-.12-.74c0-.64-1-.78-1.76-.78-2.36,0-5.66-.71-7.12-2A8,8,0,0,1,438,68v.63a10.09,10.09,0,0,0,2.34,6.64c1.46,1.51,4.76,2.33,7.12,2.34a1.3,1.3,0,0,1,.52.09,1.31,1.31,0,0,1,.73.73,1.3,1.3,0,0,1,.11.51v.91a.29.29,0,0,0,0,.09A.18.18,0,0,0,449,80a.13.13,0,0,0,.08,0l.08,0c.77-.67,1.58-1.39,2.38-2.13.19-.17.39-.37.6-.55a17.9,17.9,0,0,0,2.63-2.76,9.43,9.43,0,0,0,1.56-4.23,12.92,12.92,0,0,0,.12-2.16A11.22,11.22,0,0,1,456.27,69.46Z"/><path class="cls-6" d="M447.94,62.76c1.15.39,3,.44,4.36,1.34.52.33,1.26.51,1.47.19s.16-.84-.54-1.38-1.6-1.07-4.48-1.38C447.51,61.39,447.07,62.47,447.94,62.76Z"/><path class="cls-6" d="M454.07,66.11a.62.62,0,1,0-.61-.62A.62.62,0,0,0,454.07,66.11Z"/><path class="cls-9" d="M441.8,66.62a1.23,1.23,0,0,1,.75-.15,1.2,1.2,0,0,1,.69.32,1,1,0,0,1,.53-.52,1.14,1.14,0,0,1,.75-.08,1.06,1.06,0,0,1,.82,1.4,8,8,0,0,1-1.24,1.93.51.51,0,0,1-.29.17.52.52,0,0,1-.33-.07,8.88,8.88,0,0,1-1.91-1.43A1,1,0,0,1,441.8,66.62Z"/><path class="cls-9" d="M452.59,66.62a1.21,1.21,0,0,0-.75-.15,1.14,1.14,0,0,0-.68.32,1.11,1.11,0,0,0-.53-.52,1.17,1.17,0,0,0-.76-.08,1.07,1.07,0,0,0-.82,1.4,8.07,8.07,0,0,0,1.25,1.93.46.46,0,0,0,.29.17.55.55,0,0,0,.33-.07,9.05,9.05,0,0,0,1.9-1.43A1,1,0,0,0,452.59,66.62Z"/><path class="cls-7" d="M449.63,70.72h-4.86a.42.42,0,0,0-.25.74,3.41,3.41,0,0,0,5.36,0A.41.41,0,0,0,449.63,70.72Z"/><g class="cls-10"><path class="cls-11" d="M168.66,360.51c37-3.64,84.32-5.83,136-5.83,93.63,0,173.22,7.19,202.21,17.21,54.11,2.82,64.87,9.23,64.87,17.23,0,10.12-41.38,17.88-125.82,17.88-27.49,0-53.29-.87-75.58-2.39-20.7.8-42.77,1.23-65.68,1.23-24.23,0-47.52-.48-69.23-1.37-18.75.88-39,1.37-60.12,1.37C78.47,405.84,0,395.69,0,383.17,0,370.93,74.92,361,168.66,360.51Z"/></g><path class="cls-12" d="M186.93,82.76a5.82,5.82,0,0,1,1.76-1.7,5.74,5.74,0,0,1,2.3-.83,12.63,12.63,0,0,1,4.9.16,14.21,14.21,0,0,1,4.49,1.87,21.68,21.68,0,0,1,3.85,3,22.05,22.05,0,0,1,3.1,3.78,15.65,15.65,0,0,1,2,4.41,12.8,12.8,0,0,1-1,9.37c-.36.71-.79,1.39-1.21,2.15a18,18,0,0,0-1.07,2.32,14.83,14.83,0,0,0-.89,5c0,3.43,1.12,6.66,1.86,9.84a10,10,0,0,1,.11,4.77,7.14,7.14,0,0,1-1.06,2.14,9.54,9.54,0,0,1-1.69,1.73,12.65,12.65,0,0,0-3.26,3.8,11.32,11.32,0,0,0-.89,2.33,22.77,22.77,0,0,0-.43,2.47,13.63,13.63,0,0,1,1.53-4.68,12.2,12.2,0,0,1,3.33-3.57,10.27,10.27,0,0,0,1.84-1.77,7.47,7.47,0,0,0,1.19-2.27,10.52,10.52,0,0,0,0-5.08c-.31-1.66-.77-3.25-1.13-4.86a20.84,20.84,0,0,1-.6-4.85,14.2,14.2,0,0,1,.88-4.73,16.77,16.77,0,0,1,1-2.19c.39-.68.86-1.41,1.24-2.17a14,14,0,0,0,1.42-4.89,13.41,13.41,0,0,0-.47-5.08A16.38,16.38,0,0,0,208,88.65a20.15,20.15,0,0,0-3.27-3.87,22,22,0,0,0-4-3A14.47,14.47,0,0,0,196,80a12.8,12.8,0,0,0-5,.06,7.15,7.15,0,0,0-2.32.95A4.77,4.77,0,0,0,186.93,82.76Z"/><path class="cls-13" d="M117.78,79.45c12.81,9.93,11.81,58.63,24.07,67.32,6.19,4.39,24.52,5.77,24.52,5.77"/><path class="cls-14" d="M55.72,374.64c.87-5.49,1.64-10.48,2.44-15.47.3-1.93.64-3.8,1-5.7.23-1.45.91-2,2.48-1.28a13.17,13.17,0,0,0,8.14.94c1.74-.35,2.18.64,2.06,1.92-.25,2.77-.64,5.52-.87,8.29-.36,4.53-.38,9.1-1,13.59a11.27,11.27,0,0,1-2.85,5.8c-2.8,3.07-8.15,1.09-9.75-2.64A28.77,28.77,0,0,1,55.72,374.64Z"/><path class="cls-15" d="M113.36,345.12l.49,7.25"/><path class="cls-14" d="M136,366.24a5.64,5.64,0,0,1,.67,4.13c-.41,1.71-1.59,2.51-4,3-3.05.64-5.87-.12-8.7-1.13-3.41-1.21-6.77-2.85-10.3-3.45-4.22-.72-5.56-3.42-6.05-6.91a41.11,41.11,0,0,1,0-6.84c0-1,.49-1.45,1.59-1.24a13.12,13.12,0,0,0,9.24-1.21,1.51,1.51,0,0,1,.7,0,1.35,1.35,0,0,1,.63.29c1.93,4.19,6.11,5.5,9.68,7.59a23.57,23.57,0,0,1,4.55,3A12.74,12.74,0,0,1,136,366.24Z"/><path class="cls-16" d="M114,354.43c2.94-.21,5.31-.74,5.27-1.21s-2.44-.67-5.38-.47-5.31.74-5.28,1.2S111.05,354.63,114,354.43Z"/><path class="cls-16" d="M119.15,351.23l.13,2-10.65.73-.2-2.31Z"/><path class="cls-15" d="M65.8,347.15l-.14,7.28"/><path class="cls-17" d="M88.13,154.69h-.29c-18.9,0-30,2.94-30,5.9l0,187.77c0,.84.44,1.49,2.28,1.78a51.61,51.61,0,0,0,7.35-.42c2.48-.4,4.12-1.09,4.12-1.87l6.48-82.53,4.3-75.6a52.76,52.76,0,0,0,11.08.84c5,.05,4.6-.54,6.78-1l2.12,76.08,2,82.24c0,1.22,4,2.2,8.88,2.2h.29c4.9,0,8.88-1,8.88-2.2l0-187.78C122.45,157.09,107,154.7,88.13,154.69Z"/><path class="cls-18" d="M121.15,174.32l-.84,170.92"/><path class="cls-19" d="M70.71,166.15A10.19,10.19,0,0,1,59.28,175a11.07,11.07,0,0,1-1.39-.29V159.93a.09.09,0,0,1,0-.07c.07-.89,1.57-1.72,4.16-2.46,1.23-.34,2.7-.67,4.38-1a10.18,10.18,0,0,1,3.51,4.26A10.05,10.05,0,0,1,70.71,166.15Z"/><path class="cls-18" d="M59.94,175l1.86,82.84-2.54,87.45"/><path class="cls-20" d="M71.69,166.27A11.16,11.16,0,0,1,60.63,176a10.36,10.36,0,0,1-1.47-.09c-.32,0-.82-.16-1.28-.27v-2c.53.13,1.22.31,1.53.35a9.21,9.21,0,0,0,10.33-7.92,13.15,13.15,0,0,0-.36-3.85c.64.06,1.33.13,2,.18A14,14,0,0,1,71.69,166.27Z"/><path class="cls-21" d="M99.34,161.57v10.6c0,2.16-1,4.48-3,4.48s-3.79-2-3.79-4.48v-10.6c1.28,0,2.57,0,3.93,0S98.14,161.57,99.34,161.57Z"/><path class="cls-19" d="M122.46,160.07v13.22a9.23,9.23,0,0,1-6.85-7.74,13,13,0,0,1,.36-3.84l-1.09.09a10.16,10.16,0,0,1,2.56-4.52C120.61,158.09,122.46,159,122.46,160.07Z"/><path class="cls-20" d="M122.45,173.29v2a11.21,11.21,0,0,1-8.79-9.5,14,14,0,0,1,.27-3.92l.94-.09,1.09-.09a13.08,13.08,0,0,0-.36,3.84,9.23,9.23,0,0,0,6.85,7.74Z"/><path class="cls-22" d="M119.73,71.78c-4.19-1.23-16.13-1.82-30.18-1.35-8.22.27-15.68.85-21.3,1.59-6.4.64-10.45,1.54-10.45,2.56V164c0,1.92,14.48,3.46,32.35,3.46S122.49,166,122.49,164V74.53C122.49,74.44,122.49,72.43,119.73,71.78Z"/><path class="cls-23" d="M102.2,70.29,96.81,83.57a2.08,2.08,0,0,1-.76.77,2.09,2.09,0,0,1-2.09,0,2.16,2.16,0,0,1-.76-.77l-9.1-12.9a54.44,54.44,0,0,1,8.36-.55C95.88,70.12,99.15,70.18,102.2,70.29Z"/><path class="cls-16" d="M112.58,22.1V46.33c0,8.71-6.12,11.17-14.3,13a18.9,18.9,0,0,1-3.89.41h-1A18.19,18.19,0,0,1,75.26,41.5V22.1A18.21,18.21,0,0,1,93.42,3.9h1a18.22,18.22,0,0,1,18.19,18.2Z"/><path class="cls-16" d="M94.39,59.69h-1a18.17,18.17,0,0,1-3.89-.42v11.2a3.9,3.9,0,0,0,.3,1.5,4,4,0,0,0,.85,1.27,3.92,3.92,0,0,0,2.77,1.15h.91a3.93,3.93,0,0,0,3.92-3.92V59.28A18.9,18.9,0,0,1,94.39,59.69Z"/><path class="cls-24" d="M89.54,63.47v5.2s.95-3.56,4.38-3.58,4.37.72,4.37.72V63l-8.76-2.11Z"/><path class="cls-25" d="M77.68,32l1.2,8.24a2.84,2.84,0,0,1-3.15-2.42l-.39-2.63A2.83,2.83,0,0,1,77.68,32Z"/><path class="cls-12" d="M116,4.81c-2.19-1.21-6.41-.18-8-2.37a6.89,6.89,0,0,0-9.92-.61c-3.58,3.29-6.75,1-6.75,1C83-1.21,79.49,4.63,78.54,6.07s1.09,3.35-7.12,6-5.29,10.08-4.06,11.53,1.09,1.42.32,6.57C67.1,34,75.15,47.42,79.51,53.34,83,61.15,94.62,64.06,100.38,64.19A22.29,22.29,0,0,0,111,62.13,3.23,3.23,0,0,0,112.29,61a3.18,3.18,0,0,0,.48-1.67l.07-7.85v-1.1c-.17-6.24-1.28-9.23-6-9.23-4.3,0-7.81,4-7.81,9a18,18,0,0,0,.47,3.27A67.84,67.84,0,0,1,88.07,53a9.07,9.07,0,0,1-6.14-4.33c-1.28-5.42,2.41-10.09-1.2-13.75-2.06-2.1,3.07-6.2,5.08-7.11s2.45-3.43,2-4.28c-1.76-3.24,1-4.33,1.53-4.58.73-.36,2-3.84,12.22,2.57,7.4,4.67,17.74,1.06,19.22-5.27A10.37,10.37,0,0,0,116,4.81Zm-14.46,45.3c0-3.58,2.36-6.5,5.27-6.5,2.14,0,3.43,0,3.52,7.85h.1a30.27,30.27,0,0,1-3.94,1.19,33.11,33.11,0,0,1-4.44.59A16.75,16.75,0,0,1,101.53,50.11Z"/><path class="cls-16" d="M81.9,46.6s1.55-7.47-2.48-9-5,4.07-3.07,6.63S81.9,46.6,81.9,46.6Z"/><path class="cls-26" d="M117.78,79.45c7.51,5.82,10.25,24.94,13.74,41.53"/><path class="cls-27" d="M118.89,124.88a6.15,6.15,0,0,1,2.31-5.08c.23,1.25.44,2.5.65,3.76v.16a4.57,4.57,0,0,0,1.2,2.35,4.73,4.73,0,0,0,2.3,1.32,18,18,0,0,0,5.77.34,22.36,22.36,0,0,0,5-1,5.57,5.57,0,0,0,3.74-6v0c-.14-.84-.29-1.7-.44-2.56a6,6,0,0,1,3.21,4.57c.39,4.18-4.53,7.93-11.18,8.56s-12.18-2.17-12.57-6.34Z"/><path class="cls-28" d="M196.06,271.13h13.79a2.68,2.68,0,0,1,2.69,2.69v5a4.25,4.25,0,0,1-.33,1.58,4.15,4.15,0,0,1-2.24,2.22,4.12,4.12,0,0,1-1.59.3H197.49a4.13,4.13,0,0,1-4.12-4.12v-5a2.71,2.71,0,0,1,.78-1.91,2.78,2.78,0,0,1,.88-.59A2.74,2.74,0,0,1,196.06,271.13Z"/><path class="cls-29" d="M191.41,262h23.07v6.74a5.28,5.28,0,0,1-.39,2,5.18,5.18,0,0,1-1.13,1.68,5,5,0,0,1-1.67,1.12,5.18,5.18,0,0,1-2,.39H196.57a5.15,5.15,0,0,1-4.78-3.19,5.28,5.28,0,0,1-.39-2V262Z"/><path class="cls-28" d="M207.05,274.19h-8.2v93.25h8.2Z"/><path class="cls-28" d="M235.28,371v.21H170.62V371a7.2,7.2,0,0,1,7.21-7.21h50.24a7.2,7.2,0,0,1,7.21,7.21Z"/><path class="cls-29" d="M258.63,257l-28.7-4.76-1.74-101.93a2.86,2.86,0,0,0-.21-1.15,2.94,2.94,0,0,0-.63-1,2.85,2.85,0,0,0-.95-.66,3,3,0,0,0-1.14-.25H152.94a1.92,1.92,0,0,0-.78.17,2,2,0,0,0-.66.46,2,2,0,0,0-.57,1.46v89.52c0,10.2,8,23.66,17.77,23.66h90.05a2.8,2.8,0,0,0,1.1-.25,3,3,0,0,0,.9-.68,2.76,2.76,0,0,0,.55-1,2.54,2.54,0,0,0,.11-1.13,2.8,2.8,0,0,0-2.78-2.49Z"/><path class="cls-30" d="M157.54,147.3h74.32a2.94,2.94,0,0,1,2.93,2.93V252.82H175.31a17.74,17.74,0,0,1-16.41-11,17.59,17.59,0,0,1-1.36-6.79V147.29Z"/><path class="cls-28" d="M402.27,367.44h8.19V274h-8.19Z"/><path class="cls-28" d="M438.7,371.45v.21H374v-.21a7.2,7.2,0,0,1,7.22-7.21h50.23a7.22,7.22,0,0,1,7.21,7.21Z"/><path class="cls-28" d="M411.83,278.3H400.94a4.06,4.06,0,0,1-1.58-.32,4.19,4.19,0,0,1-1.34-.89,4.33,4.33,0,0,1-.9-1.34,4.28,4.28,0,0,1-.31-1.58v-5a2.56,2.56,0,0,1,.21-1,2.46,2.46,0,0,1,.58-.87,2.73,2.73,0,0,1,.87-.59,2.82,2.82,0,0,1,1-.2h13.76A2.68,2.68,0,0,1,416,269.2v5a4.08,4.08,0,0,1-.31,1.58,4.13,4.13,0,0,1-2.23,2.24A4.09,4.09,0,0,1,411.83,278.3Z"/><path class="cls-31" d="M394.82,257.53h23.06v6.74a5.16,5.16,0,0,1-5.16,5.16H400a5.16,5.16,0,0,1-5.15-5.16Z"/><path class="cls-29" d="M350.69,252.6h30.44V150a2.94,2.94,0,0,1,2.93-2.93h72.32a2,2,0,0,1,2,2V235.2c0,9.81-7.95,22.75-17.77,22.75H350.57a2.68,2.68,0,0,1-1.08-.22,2.63,2.63,0,0,1-.9-.65,2.73,2.73,0,0,1-.56-1,2.56,2.56,0,0,1-.12-1.1,2.73,2.73,0,0,1,.93-1.74A2.78,2.78,0,0,1,350.69,252.6Z"/><path class="cls-30" d="M434,252.63H374.53V150a2.94,2.94,0,0,1,2.93-2.93h74.31v87.77A17.77,17.77,0,0,1,434,252.63Z"/><path class="cls-32" d="M391.1,152.78l-25.66,53.34"/><path class="cls-32" d="M341.76,334.74v11.37"/><path class="cls-33" d="M351.61,351.38l.56,14.37a2.16,2.16,0,0,1-.13.83,2,2,0,0,1-.45.7,2,2,0,0,1-.69.48,2.1,2.1,0,0,1-.82.16l-39.66-.16a2.68,2.68,0,0,1-1.94-.82,2.65,2.65,0,0,1-.57-.9,2.58,2.58,0,0,1-.18-1.06,6.86,6.86,0,0,1,.95-3.3,7,7,0,0,1,2.45-2.41l9-5a11.82,11.82,0,0,0,2.15-1.25l8.37-5a8.1,8.1,0,0,1,4.44-1.09l14.16.64C351.31,347.67,351.52,349.32,351.61,351.38Z"/><path class="cls-32" d="M361.88,336.76v11.37"/><path class="cls-31" d="M371.72,353.39l.56,14.38a2.06,2.06,0,0,1-.58,1.53,2.17,2.17,0,0,1-.69.47,1.94,1.94,0,0,1-.82.16l-39.66-.14a2.71,2.71,0,0,1-1-.22,2.7,2.7,0,0,1-1.64-2.56,6.77,6.77,0,0,1,3.4-5.71l9-5a12.38,12.38,0,0,0,2.15-1.24l8.37-5a8.1,8.1,0,0,1,4.44-1.09l14.16.64C371.43,349.68,371.64,351.33,371.72,353.39Z"/><path class="cls-34" d="M341.73,349.32c4.61,0,8.34-.59,8.34-1.31s-3.73-1.31-8.34-1.31-8.35.59-8.35,1.31S337.12,349.32,341.73,349.32Z"/><path class="cls-34" d="M333.38,344.9V348h16.7l.06-3.62Z"/><path class="cls-34" d="M361.84,351.33c4.61,0,8.35-.59,8.35-1.31s-3.74-1.3-8.35-1.3-8.35.58-8.35,1.3S357.23,351.33,361.84,351.33Z"/><path class="cls-34" d="M353.49,346.92V350h16.7l.07-3.62Z"/><path class="cls-35" d="M403,207.3a.57.57,0,0,1,0,.21v.3l-.06.64-.12,1.28c-.08.87-.19,1.75-.29,2.62-.21,1.73-.48,3.43-.79,5a38,38,0,0,1-1.14,4.44,13.54,13.54,0,0,1-1.42,3.12c-.45.69-.84.84-.64.46a2.12,2.12,0,0,1,.64-.59,5,5,0,0,1,.73-.37s.31,0-.4,0l-1.47,0-2.95-.06-6-.08c-8-.08-16.18.1-24.79.64a129.84,129.84,0,0,0-13.62,1.53,53.8,53.8,0,0,0-7.9,2,32.9,32.9,0,0,0-4.67,2,25.3,25.3,0,0,0-5.4,3.91,21.44,21.44,0,0,0-2.77,3.25,20.41,20.41,0,0,0-2.25,4.29,19.61,19.61,0,0,0-.72,2.37c-.09.4-.17.81-.25,1.2s0,.28-.06.38l0,.25-.24,2c-.22,2.5-.33,4.81-.38,7-.09,4.41,0,8.61.12,12.81s.33,8.28.57,12.38.49,8.18.83,12.25q1,12.19,2.18,24.3l1.32,12.1c.44,4,.92,8,1.44,12.11h18.3c-.08-8,.82-17.41.8-25.41s-.09-16,0-24,.14-15.9.48-23.7c.17-3.88.39-7.73.75-11.35.16-1.83.39-3.53.64-5l.19-1v-.13h0a2.33,2.33,0,0,1-.08.46,7.9,7.9,0,0,1-.27.95,7.7,7.7,0,0,1-.8,1.63,5.88,5.88,0,0,1-.8,1c-.41.43-.56.49-.47.45s.43-.2.88-.36a25.61,25.61,0,0,1,3.77-1,80.26,80.26,0,0,1,10.35-1.33c7.45-.58,15.38-.64,23.49-1.08,2-.13,4.06-.23,6.11-.4l3.09-.26,1.55-.13c.29,0,1.58-.1,2.61-.27a23.17,23.17,0,0,0,6.52-2,22.09,22.09,0,0,0,5.68-3.88,23,23,0,0,0,3.84-4.73,27,27,0,0,0,2.34-4.65,35.32,35.32,0,0,0,2.11-8.4A48.5,48.5,0,0,0,424,219a61.55,61.55,0,0,0-.5-7.05c-.13-1.15-.33-2.28-.52-3.42-.11-.57-.22-1.14-.34-1.71l-.42-1.87Z"/><path class="cls-36" d="M423.47,209.38a.57.57,0,0,1,0,.21v.3l-.05.64-.13,1.28c-.08.87-.19,1.75-.29,2.62-.2,1.73-.48,3.42-.79,5a37.69,37.69,0,0,1-1.14,4.45,13.81,13.81,0,0,1-1.42,3.13c-.44.68-.84.83-.64.46a2.15,2.15,0,0,1,.64-.6,4.12,4.12,0,0,1,.73-.36s.31-.07-.4-.06h-1.47l-3-.06-5.95-.08c-8-.08-16.19.11-24.8.64a124.73,124.73,0,0,0-13.62,1.54,51.07,51.07,0,0,0-7.9,2,31.22,31.22,0,0,0-4.66,2,24.73,24.73,0,0,0-5.41,3.9,22,22,0,0,0-2.77,3.26,20.15,20.15,0,0,0-2.24,4.29,21.63,21.63,0,0,0-.73,2.37q-.13.6-.24,1.2a2.5,2.5,0,0,0-.06.38l0,.25-.25,2c-.22,2.5-.34,4.8-.37,7-.1,4.42,0,8.62.11,12.81s.34,8.29.58,12.39.49,8.17.83,12.23q1,12.21,2.17,24.31l1.32,12.1c.45,4,.92,8,1.44,12.11h19.4c-.08-8-.27-17.4-.29-25.4s-.1-16,0-24,.14-15.9.48-23.71c.17-3.87.39-7.73.74-11.35.18-1.82.41-3.53.64-5l.21-1v-.12h0a3.73,3.73,0,0,1-.09.46,7.7,7.7,0,0,1-.26.94,8.26,8.26,0,0,1-.81,1.63,5.88,5.88,0,0,1-.8,1c-.41.44-.57.49-.47.46s.43-.2.88-.36a24.65,24.65,0,0,1,3.76-1,82,82,0,0,1,10.36-1.33c7.45-.58,15.41-.64,23.48-1.08,2-.13,4.07-.24,6.12-.4l3.08-.25,1.55-.14c.3,0,1.58-.1,2.61-.27a23.19,23.19,0,0,0,6.52-2,22.09,22.09,0,0,0,5.68-3.88,23.6,23.6,0,0,0,3.85-4.72,28.21,28.21,0,0,0,2.34-4.66,35.88,35.88,0,0,0,2.11-8.41,49.64,49.64,0,0,0,.43-7.51A63.9,63.9,0,0,0,444,214c-.14-1.15-.34-2.29-.54-3.42-.09-.57-.21-1.14-.34-1.71l-.41-1.87Z"/><path class="cls-3" d="M418.41,141.51c15.43,0,27.94,1.33,27.94,3V221.8c0,1.64-12.51,3-27.94,3s-28-1.34-28-3V144.49C390.45,142.84,403,141.51,418.41,141.51Z"/><path class="cls-37" d="M444,219.48c.33-15.55-1.82-51.57-1.82-51.57a78.12,78.12,0,0,1,4.18,9.06l0,42.51Z"/><path class="cls-38" d="M389.92,215.27c-.33-15.56,1.83-51.57,1.83-51.57a75.73,75.73,0,0,0-4.18,9.05v42.52Z"/><path class="cls-39" d="M392.15,152.78c-3.21.73-8.17,12.81-8.17,12.81"/><path class="cls-34" d="M416.49,150.57c3.33-.07,6-2.34,5.92-5.08s-2.8-4.9-6.12-4.83-6,2.34-5.92,5.08S413.17,150.64,416.49,150.57Z"/><path class="cls-40" d="M416.49,150.57c3.33-.07,6-2.34,5.92-5.08s-2.8-4.9-6.12-4.83-6,2.34-5.92,5.08S413.17,150.64,416.49,150.57Z"/><path class="cls-34" d="M416.6,131.37h-1a18.67,18.67,0,0,1-3.95-.35l.08,3.59.16,7.76a3.93,3.93,0,0,0,1.22,2.78,4,4,0,0,0,2.83,1.1h.91a3.94,3.94,0,0,0,1.51-.33,4,4,0,0,0,1.27-.89,4,4,0,0,0,1.1-2.82l-.15-7.61-.09-3.74A18.47,18.47,0,0,1,416.6,131.37Z"/><path class="cls-41" d="M411.77,136.18l.06,3.27s.91-1.64,4.39-1.73,4.48,1.71,4.48,1.71l-.08-3.94h-8.85Z"/><path class="cls-38" d="M438.93,165.62s-2.33,33.81-4.58,36.78c-8.84,11.65-6.41,12.35-15.94,13.49,0,0,27.27,2.66,27.94,5.92V177Z"/><path class="cls-32" d="M443.08,154s27.29,29.23,16.82,43.06c-7.44,9.83-35.07,11.1-35.07,11.1"/><path class="cls-42" d="M443.08,154S452.55,165.8,458,177.2"/><path class="cls-43" d="M265.51,332.77v11.38"/><path class="cls-23" d="M299.55,363a3.13,3.13,0,0,1-.18,1.05,2.73,2.73,0,0,1-1,1.25,2.76,2.76,0,0,1-1.52.48l-39.67.15a2,2,0,0,1-1.28-.42,2.15,2.15,0,0,1-.75-1.12,2.33,2.33,0,0,1-.07-.64l.57-14.38c.08-2.06.29-3.71,2.35-3.81l14.16-.64A8.14,8.14,0,0,1,276.6,346l8.36,5a12.38,12.38,0,0,0,2.15,1.24l9.05,5a6.83,6.83,0,0,1,3.4,5.71Z"/><path class="cls-44" d="M262.84,358.71a3.9,3.9,0,1,0-3.9-3.9A3.9,3.9,0,0,0,262.84,358.71Z"/><path class="cls-45" d="M299.7,364.37c0,2.07-1.17,3.78-2.71,3.78l-39.8.22c-1.19,0-2.14-1.34-2.09-3l.07-2.45a2.31,2.31,0,0,0,2,2.11l39.8-.21a2.87,2.87,0,0,0,2.53-2.35A11.49,11.49,0,0,1,299.7,364.37Z"/><path class="cls-43" d="M246.5,336v11.38"/><path class="cls-23" d="M280.54,366.24a2.75,2.75,0,0,1-.18,1.06,2.76,2.76,0,0,1-2.52,1.72l-39.66.13a2.12,2.12,0,0,1-1.28-.43,2.1,2.1,0,0,1-.74-1.12,2,2,0,0,1-.07-.64l.57-14.37c.07-2.07.29-3.71,2.34-3.8l14.17-.64a8.08,8.08,0,0,1,4.43,1.08l8.37,5a12,12,0,0,0,2.14,1.24l9,5a6.82,6.82,0,0,1,2.45,2.41,6.91,6.91,0,0,1,1,3.29Z"/><path class="cls-46" d="M265.54,347.35c4.61,0,8.35-.59,8.35-1.31s-3.74-1.31-8.35-1.31-8.35.59-8.35,1.31S260.93,347.35,265.54,347.35Z"/><path class="cls-46" d="M273.89,342.93V346h-16.7l-.06-3.63Z"/><path class="cls-46" d="M246.53,350.57c4.61,0,8.35-.59,8.35-1.31s-3.74-1.31-8.35-1.31-8.35.59-8.35,1.31S241.92,350.57,246.53,350.57Z"/><path class="cls-46" d="M254.88,346.15v3.12h-16.7l-.06-3.64Z"/><path class="cls-47" d="M351.64,335.88H332a1.83,1.83,0,0,0-1.83,1.83v4a1.83,1.83,0,0,0,1.83,1.83h19.69a1.83,1.83,0,0,0,1.84-1.83v-4A1.83,1.83,0,0,0,351.64,335.88Z"/><path class="cls-45" d="M280.7,367.59c.05,2.08-1.18,3.79-2.7,3.79l-39.82.22c-1.19,0-2.14-1.34-2.09-3l.07-2.44a2.32,2.32,0,0,0,2,2.11l39.82-.22a2.87,2.87,0,0,0,2.52-2.35A11.71,11.71,0,0,1,280.7,367.59Z"/><path class="cls-44" d="M242.73,361.43a3.9,3.9,0,1,0-3.9-3.9A3.89,3.89,0,0,0,242.73,361.43Z"/><path class="cls-48" d="M285.13,351l-3.71,3.32a1.06,1.06,0,0,1-1.67-.42,1,1,0,0,1,.28-1.15l3.2-2.87Z"/><path class="cls-48" d="M288.78,353.13l-4.11,3.66a1.06,1.06,0,0,1-.7.27,1.08,1.08,0,0,1-1-.68,1.09,1.09,0,0,1,0-.62,1,1,0,0,1,.32-.53l3.55-3.16a10.57,10.57,0,0,0,1.41.75Z"/><path class="cls-48" d="M293,355.45l-4.48,4a1.07,1.07,0,0,1-1.29.08,1.06,1.06,0,0,1-.1-1.65l3.9-3.48Z"/><path class="cls-48" d="M265,353.7,261.29,357a1,1,0,0,1-.74.21,1.06,1.06,0,0,1-.69-.34,1.07,1.07,0,0,1,0-1.44l3.2-2.87Z"/><path class="cls-48" d="M268.67,355.83l-4.11,3.66a1,1,0,0,1-.7.26,1,1,0,0,1-1-.67,1,1,0,0,1,0-.62,1,1,0,0,1,.32-.54l3.55-3.15a12.55,12.55,0,0,0,1.4.75Z"/><path class="cls-48" d="M272.89,358.17l-4.49,4a1.08,1.08,0,0,1-.69.27.94.94,0,0,1-.43-.1.92.92,0,0,1-.35-.26,1.05,1.05,0,0,1,.08-1.47l3.92-3.49Z"/><path class="cls-12" d="M175.85,90.66a10.2,10.2,0,1,0-10.2-10.2A10.2,10.2,0,0,0,175.85,90.66Z"/><path class="cls-49" d="M172.15,77l5.61,3.56,3.13-12"/><path class="cls-50" d="M204.23,207.75a.57.57,0,0,0,0,.21v.3l0,.64.13,1.28c.07.87.19,1.75.29,2.61.21,1.74.48,3.44.79,5.05a40.1,40.1,0,0,0,1.13,4.44,14.89,14.89,0,0,0,1.42,3.12c.45.69.85.83.65.46a2.44,2.44,0,0,0-.65-.59,5.54,5.54,0,0,0-.73-.37s-.31-.06.41-.06h1.46l2.95-.05,6-.09c8-.07,16.18.11,24.79.64a129.86,129.86,0,0,1,13.62,1.54,51.6,51.6,0,0,1,7.93,2,34.49,34.49,0,0,1,4.66,2,25.3,25.3,0,0,1,5.4,3.91,22.1,22.1,0,0,1,2.78,3.25,20.57,20.57,0,0,1,2.23,4.29,18.15,18.15,0,0,1,.73,2.38c.09.4.18.8.25,1.19l.06.38,0,.25.23,2c.23,2.49.35,4.8.39,7,.1,4.41,0,8.61-.12,12.81s-.33,8.29-.57,12.38-.5,8.18-.83,12.25c-.64,8.13-1.39,16.22-2.18,24.3l-1.31,12.1c-.45,4-.92,8-1.45,12.11h-18.3c.08-8-.82-17.41-.8-25.4s.09-16,0-24-.15-15.9-.49-23.71c-.17-3.87-.38-7.73-.74-11.35-.17-1.83-.4-3.53-.64-5l-.21-1v-.12h0a3,3,0,0,0,.08.46,7.93,7.93,0,0,0,1.08,2.56,6.86,6.86,0,0,0,.79,1c.42.43.57.49.47.45s-.42-.2-.87-.36a26,26,0,0,0-3.77-1A83.67,83.67,0,0,0,241,252.67c-7.46-.58-15.41-.64-23.49-1.08-2-.13-4.06-.24-6.11-.4l-3.09-.26-1.55-.13c-.29,0-1.58-.1-2.61-.27a23.33,23.33,0,0,1-6.53-2,22.22,22.22,0,0,1-5.68-3.89,23,23,0,0,1-3.84-4.72,28.51,28.51,0,0,1-2.34-4.65,35.32,35.32,0,0,1-2.15-8.39,48.5,48.5,0,0,1-.43-7.52,61.55,61.55,0,0,1,.5-7.05c.14-1.15.33-2.28.53-3.42.1-.57.21-1.13.34-1.71l.41-1.87Z"/><path class="cls-45" d="M185.77,209.9l0,.2v.3l.05.64.12,1.28c.08.88.2,1.75.3,2.62.2,1.73.48,3.43.79,5a40.27,40.27,0,0,0,1.13,4.45,14.89,14.89,0,0,0,1.42,3.12c.45.68.85.83.64.46a2.29,2.29,0,0,0-.64-.6,5,5,0,0,0-.73-.36s-.31-.07.41-.06h1.46l2.95-.06,6-.08c8-.08,16.17.11,24.79.64A127,127,0,0,1,238.09,229a52.66,52.66,0,0,1,7.91,2,33.28,33.28,0,0,1,4.66,2.05,25,25,0,0,1,5.4,3.91,21.67,21.67,0,0,1,2.78,3.26,20.25,20.25,0,0,1,2.23,4.28,18.15,18.15,0,0,1,.73,2.38c.09.4.18.79.25,1.2l.06.37,0,.25.23,2c.23,2.49.35,4.79.39,7,.09,4.41,0,8.61-.12,12.81s-.34,8.29-.57,12.39-.5,8.17-.83,12.23c-.64,8.14-1.39,16.23-2.18,24.3l-1.31,12.11c-.45,4-.92,8-1.45,12.11H236.91c.09-8,.29-17.41.3-25.4s.1-16,0-24-.14-15.9-.48-23.71c-.17-3.87-.39-7.73-.75-11.35-.16-1.83-.39-3.53-.64-5l-.2-1v-.12h0a3,3,0,0,0,.08.46,7.75,7.75,0,0,0,.27.94,8.26,8.26,0,0,0,.81,1.63,6.36,6.36,0,0,0,.79,1c.42.44.57.49.47.46s-.42-.2-.87-.36a24.78,24.78,0,0,0-3.77-1,82.06,82.06,0,0,0-10.35-1.33c-7.46-.58-15.41-.64-23.49-1.08-2-.13-4.07-.24-6.12-.4l-3.08-.25-1.55-.14c-.29,0-1.58-.1-2.61-.27a23.33,23.33,0,0,1-6.53-2,22.26,22.26,0,0,1-5.68-3.88,23.7,23.7,0,0,1-3.87-4.72,28.21,28.21,0,0,1-2.34-4.66,35.4,35.4,0,0,1-2.11-8.41,48.37,48.37,0,0,1-.43-7.51c0-2.41,1.1-4.61,1.39-6.91.13-1.14.32-2.28.52-3.42.1-.57.22-1.14.34-1.71l.42-1.87Z"/><path class="cls-51" d="M216,222.31a1.44,1.44,0,0,0,0-.46l-.53-1.43c-1.28-3.43-4.31-12.09-4.41-15.86a169.21,169.21,0,0,1,1.33-21.1,7.29,7.29,0,0,1-3.11,1.28H170.31c-1.08,0-1.57-1.11-2.6-1.66.55,3.69.58,15,.41,21.46C168,208.3,165,217,163.73,220.39l-.54,1.44a.86.86,0,0,0,0,.45c0,1.92,11.8,3.47,26.42,3.49S216,224.2,216,222.28Z"/><path class="cls-52" d="M168.28,212l-1,6.12-2.13-1.8,1.36-4.32,1.76-2.7V212Z"/><path class="cls-51" d="M216.21,170.68c-1.89-8.11-6.5-27.1-6.5-27.1,0-.93-5.66-1.28-18.34-1.52V142h-3.69v.05c-12.68.25-18.33.59-18.33,1.52,0,0-.4,16.6-2.33,24.69a21.6,21.6,0,0,0-.25,3.85,67.27,67.27,0,0,0,.39,7.24c.36,3.62,1.36,6,4.34,6h36.05C212.65,185.4,218,178.49,216.21,170.68Z"/><path class="cls-52" d="M176.21,185.4c-4.32-1.11-5.23-4.67-5.32-8.59-.22-10.55,2.57-25.08,2.8-25.59l-5.59,10.62c-.34,3.1-1.18,5.95-1.28,8.19a60.77,60.77,0,0,0,.88,13.26c.11,1.8,1,16.21.47,18s3,.82,3,.82,6.71-13.17,22.31-16.69Z"/><path class="cls-53" d="M210.7,151.19c8.53,1.7,8.37,11.95,15.47,16.83,10.67,7.33,26.09,10.18,41.68.5"/><path class="cls-46" d="M190.83,150.15c3.15,0,5.7-2.1,5.7-4.69s-2.55-4.69-5.7-4.69-5.69,2.1-5.69,4.69S187.69,150.15,190.83,150.15Z"/><path class="cls-54" d="M190.83,150.15c3.15,0,5.7-2.1,5.7-4.69s-2.55-4.69-5.7-4.69-5.69,2.1-5.69,4.69S187.69,150.15,190.83,150.15Z"/><path class="cls-46" d="M191.29,132h-.92a17.23,17.23,0,0,1-3.72-.4v10.77a3.76,3.76,0,0,0,3.75,3.76h.87a3.81,3.81,0,0,0,2.65-1.1,3.83,3.83,0,0,0,.81-1.22,3.73,3.73,0,0,0,.28-1.44V131.58A17.23,17.23,0,0,1,191.29,132Z"/><path class="cls-36" d="M186.66,134.51v3.1s.9-1.54,4.18-1.55,4.19,1.71,4.19,1.71V134l-8.37-.15Z"/><path class="cls-46" d="M208.7,98.49v18.58A17.37,17.37,0,0,1,198,133.16a17.55,17.55,0,0,1-6.67,1.32h-.92a16.63,16.63,0,0,1-3.72-.41,17.41,17.41,0,0,1-13.69-17V98.49a17.4,17.4,0,0,1,17.41-17.4h.92a17.36,17.36,0,0,1,12.31,5.09,17.36,17.36,0,0,1,5.1,12.31Z"/><path class="cls-55" d="M216.21,170.68c-1.14-4.88-3.26-13.71-4.78-20a.77.77,0,0,0-.26-.44.74.74,0,0,0-.47-.2l-1.5-.16c-.7-.07-.93.6-.81,1.28a21.58,21.58,0,0,0,1.23,3.77l.15.6c.41,1.53.93,3,1.38,4.56s1,3,1.64,4.48l.75,1.81c1,5,.9,10.51-2.5,15.81a6,6,0,0,1-.49.64c-1.24,1.51-1,2.49-3,2.49l-5.36.41c2.19,0,5.94.3,7.19,3.17,1.54,3.53.32,9.82,0,10.74L209,201.5a.8.8,0,0,0,0,.46.86.86,0,0,0,.26.37.81.81,0,0,0,.42.19.77.77,0,0,0,.45-.05l.31-.14a.74.74,0,0,0,.36-.29.86.86,0,0,0,.15-.43l1-17.53a.9.9,0,0,1,.09-.33.84.84,0,0,1,.22-.27,13,13,0,0,0,4-12.8Z"/><path class="cls-53" d="M170.3,149.74s-33.43,34-23,47.81c7.44,9.82,35.07,11.1,35.07,11.1"/><path class="cls-56" d="M170.89,150.15s-8.41,4.64-19.47,23.44"/><path class="cls-12" d="M182,132.38s-13.73-5.07-16.86-16a43.26,43.26,0,0,1-1.79-12.06c0-14.41,11.08-26.1,24.76-26.1s22.06,11.65,22.06,26.05c0,5.59,1,10.81-1.81,15.06a37.46,37.46,0,0,0,.28-4.85v-1.59c0-12.1-5-23.65-14.39-23.65-8.81,0-16,8.66-16.88,19.75-1.55,0-3.85.74-3.85,5,0,2.57.48,9.24,4.15,13.65C179.64,130,182,132.38,182,132.38Z"/><path class="cls-12" d="M206.25,88.65l-1.28.78-3.12,1.28-3.43-5.18-18.67,5.13s-15.38,20.91-2.42,20.22c-.31,2.25,1.38,6,1.38,6a24.92,24.92,0,0,1,.31-6.24c14.69-.45,23.28-5.41,25.71-11.47,2.56,3.87,2,6.59,5.51,8.44L211,105C211.88,100.36,209.56,92.34,206.25,88.65Z"/><path class="cls-56" d="M208.59,149.93c9.27,1.16,10.48,13.21,17.58,18.09"/><path class="cls-57" d="M201,219.93h-43a.79.79,0,0,1-.54-.22.76.76,0,0,1-.22-.54v-.78a2,2,0,0,1,2.05-2H201Z"/><path class="cls-58" d="M207.26,176.79l-12.73,43v0s0,0,0,0l0,0H251a4.5,4.5,0,0,0,4.24-3.06l12.38-37.42a4.41,4.41,0,0,0,.16-2.07,4.46,4.46,0,0,0-2.37-3.29,4.61,4.61,0,0,0-2-.5H211.54a4.47,4.47,0,0,0-4.28,3.2Z"/><g class="cls-59"><path class="cls-60" d="M240.12,198.15a2.51,2.51,0,0,0,.06-1,2.45,2.45,0,0,0-.36-.94,2.6,2.6,0,0,0-.72-.72,2.53,2.53,0,0,0-1-.35,9.85,9.85,0,0,0-2.1-.22,8.19,8.19,0,0,0-3.58.74,7.06,7.06,0,0,0-3.34,4.16,4.75,4.75,0,0,0,0,3.77c.53.9,2,1.34,3.28,1.4l-.37,1a.54.54,0,0,0-.05.22.36.36,0,0,0,.06.2.46.46,0,0,0,.16.15.41.41,0,0,0,.22,0h.05a.8.8,0,0,0,.39-.14c.64-.43,1.51-1,2.36-1.58l.37-.26a17.14,17.14,0,0,0,1.93-1.46A9.13,9.13,0,0,0,240.12,198.15Z"/></g><path class="cls-61" d="M178.35,255.13,99.8,365.5"/><path class="cls-62" d="M117.74,219.83l-28.47,163h8.14l29.27-163Z"/><path class="cls-29" d="M100.16,382.8H97.41l29-163h2.72Z"/><path class="cls-29" d="M168.59,219.83l29.26,163h7.44l-28.77-163Z"/><path class="cls-62" d="M205.29,382.8H211l-29.76-163h-4.71Z"/><path class="cls-61" d="M455.85,254.94,377.3,365.31"/><path class="cls-62" d="M395.25,219.83l-28.48,163h8.14l29.27-163Z"/><path class="cls-29" d="M377.66,382.8h-2.75l29-163h2.73Z"/><path class="cls-29" d="M446.08,219.83l29.27,163h7.44L454,219.83Z"/><path class="cls-62" d="M482.79,382.8h5.71l-29.76-163H454Z"/><path class="cls-63" d="M487.82,219.48H89.94v9.61H487.82Z"/><path class="cls-64" d="M535.76,387.91s6.46.28,7-6.48a7,7,0,0,1-7,6.48Z"/><path class="cls-12" d="M187.69,91a4.09,4.09,0,0,0-1.45-1,4,4,0,0,0-1.72-.3,9,9,0,0,0-3.44.71,10.31,10.31,0,0,0-2.94,1.88,15.2,15.2,0,0,0-2.35,2.59,16.13,16.13,0,0,0-1.74,3,11.82,11.82,0,0,0-.87,3.35,9.11,9.11,0,0,0,1.82,6.48c.34.46.72.89,1.12,1.37a14.21,14.21,0,0,1,1,1.5,10.52,10.52,0,0,1,1.23,3.43c.43,2.42,0,4.84-.12,7.16a7.13,7.13,0,0,0,.5,3.39,5,5,0,0,0,1,1.37,7.07,7.07,0,0,0,1.4,1,9,9,0,0,1,2.76,2.27,7.92,7.92,0,0,1,.91,1.53,17,17,0,0,1,.6,1.69,9.68,9.68,0,0,0-1.64-3.11,8.66,8.66,0,0,0-2.78-2.1,7.46,7.46,0,0,1-1.51-1,5.27,5.27,0,0,1-1.12-1.45,7.59,7.59,0,0,1-.63-3.58c0-1.21.16-2.39.21-3.56a14.66,14.66,0,0,0-.16-3.5,9.86,9.86,0,0,0-1.19-3.22,11.3,11.3,0,0,0-1-1.42c-.36-.43-.77-.89-1.14-1.38a10.14,10.14,0,0,1-1.59-3.27,9.51,9.51,0,0,1-.28-3.64,11.93,11.93,0,0,1,.94-3.51,14.74,14.74,0,0,1,1.85-3.13A15.38,15.38,0,0,1,177.88,92,10.36,10.36,0,0,1,181,90.14a9.5,9.5,0,0,1,3.54-.58,5.29,5.29,0,0,1,1.76.39A3.61,3.61,0,0,1,187.69,91Z"/><path class="cls-12" d="M205.82,95.59a23,23,0,0,1-.87,3.82,23.59,23.59,0,0,1-1.47,3.65,17.94,17.94,0,0,1-2.13,3.35,16.91,16.91,0,0,1-1.35,1.46c-.25.22-.51.43-.77.64s-.25.22-.39.32l-.42.27a20.35,20.35,0,0,1-7.32,2.73,26.31,26.31,0,0,1-3.86.4,21.45,21.45,0,0,1-3.84-.2,36.9,36.9,0,0,0,7.54-1,27.14,27.14,0,0,0,3.6-1.1c.29-.11.58-.24.87-.37s.57-.24.85-.39l.83-.42.78-.49.39-.24c.13-.09.24-.19.36-.29l.74-.62a18.2,18.2,0,0,0,1.28-1.35,19.45,19.45,0,0,0,2.15-3.12,29.05,29.05,0,0,0,1.7-3.45C205,98,205.44,96.82,205.82,95.59Z"/><path class="cls-57" d="M406.21,215.89H447.9a2.05,2.05,0,0,1,.78.16,2,2,0,0,1,1.11,1.11,2.05,2.05,0,0,1,.16.78v.79a.75.75,0,0,1-.22.53.79.79,0,0,1-.54.22h-43Z"/><path class="cls-58" d="M400,176.34l12.72,43a.09.09,0,0,1,0,.05s0,0,0,0l0,0H356.23a4.45,4.45,0,0,1-2.61-.85,4.4,4.4,0,0,1-1.62-2.2L339.61,179a4.54,4.54,0,0,1-.16-2.07,4.5,4.5,0,0,1,.79-1.93,4.49,4.49,0,0,1,3.61-1.86h51.84a4.44,4.44,0,0,1,2.67.89A4.5,4.5,0,0,1,400,176.34Z"/><g class="cls-59"><path class="cls-60" d="M376.71,197.65a6.28,6.28,0,0,0-1.78-2,6.1,6.1,0,0,0-2.45-1.06,12.38,12.38,0,0,0-2.27-.22,5.37,5.37,0,0,0-3.07.74c-1,.77-1.07,2.26-.31,4.2a8.81,8.81,0,0,0,2.77,3.8,8.3,8.3,0,0,0,4.31,1.4l.36,1a1,1,0,0,0,.33.42,1,1,0,0,0,.51.19h.05l.16,0a.45.45,0,0,0,.13-.1c.34-.43.79-1,1.22-1.6l.18-.26a5.46,5.46,0,0,0,.86-1.48C378.16,201.4,377.76,199.53,376.71,197.65Z"/></g><path class="cls-65" d="M372,335.88H352.15a1.91,1.91,0,0,0-1.85,2v4.25a1.91,1.91,0,0,0,1.85,2H372a1.91,1.91,0,0,0,1.85-2v-4.25A1.91,1.91,0,0,0,372,335.88Z"/><path class="cls-34" d="M414.52,79.63h1A18.37,18.37,0,0,1,431,87.54a2.47,2.47,0,0,1,.21-.27c3.63-.85,8.12,2.07,7.69,14.43-.59,16.58-8,27.12-8,27.12a18.48,18.48,0,0,1-10.32,6.73,19.13,19.13,0,0,1-3.92.5h-1a18.41,18.41,0,0,1-18.78-18l-.4-19.63a18.41,18.41,0,0,1,18-18.75Z"/><path class="cls-66" d="M431.21,87.26c-3.3,4.25-4.12,1.61-7.27,6-1.07,16.16,5.94,15.51,5.94,15.51l.52,9.61,1.05.78-1.2,10.49s7.86-9.81,8.65-27.92C439.43,89.32,434.84,86.4,431.21,87.26Z"/><path class="cls-12" d="M433.17,97.79s-5.59-3.29-8.32,2.07-12.71,5.4-17.62.53-7.09,5.12-14.26.9-8.33-18,3.15-23.14,12.06,6.16,19-.93,17.64.58,21.2,6.21c2.92,4.64,9.8-1.92,5.16,16.17C438,113.14,433.17,97.79,433.17,97.79Z"/><path class="cls-34" d="M430.14,118.71l-.73-10.15s3.65-1.51,4.64,1.77S433.39,118,430.14,118.71Z"/><path class="cls-67" d="M400.14,120.85a8.63,8.63,0,1,0-8.63-8.63A8.64,8.64,0,0,0,400.14,120.85Z"/><path class="cls-67" d="M421.51,120.85a8.63,8.63,0,1,0-8.62-8.63A8.63,8.63,0,0,0,421.51,120.85Z"/><path class="cls-67" d="M408.77,113.89c0-.68.92-1.23,2.06-1.23s2.06.55,2.06,1.23"/><path class="cls-68" d="M119.65,89.86s.26,65.55-1.44,75.92a15.1,15.1,0,0,0,2.88-.72,5.46,5.46,0,0,0,1.45-.72V102.59S121.33,93.44,119.65,89.86Z"/><path class="cls-68" d="M60.55,89.86s-.26,65.55,1.44,75.92a15.1,15.1,0,0,1-2.88-.72,5.19,5.19,0,0,1-1.44-.72V102.59S58.87,93.44,60.55,89.86Z"/><path class="cls-69" d="M116.77,149.18H88.83a4.48,4.48,0,0,1-3.65-1.64,4.58,4.58,0,0,1-.91-1.85,4.48,4.48,0,0,1,0-2.06l6.92-39.27a6.88,6.88,0,0,1,6.49-5.51h28a4.46,4.46,0,0,1,3.64,1.62,4.61,4.61,0,0,1,.91,1.84,4.44,4.44,0,0,1,0,2l-6.93,39.27a6.88,6.88,0,0,1-6.52,5.55Z"/><g class="cls-70"><path class="cls-71" d="M115.55,121.52a2.89,2.89,0,0,0-.68-1.91,2.84,2.84,0,0,0-1.77-1,10.21,10.21,0,0,0-2.06-.21,7,7,0,0,0-3.32.71,5.21,5.21,0,0,0-2.48,4,4.94,4.94,0,0,0,.64,3.64,4.89,4.89,0,0,0,3.4,1.33l-.17,1a.38.38,0,0,0,0,.21.46.46,0,0,0,.09.2.46.46,0,0,0,.18.13.38.38,0,0,0,.21,0h.13a.7.7,0,0,0,.36-.14c.55-.41,1.28-.95,2-1.52l.32-.25a12.35,12.35,0,0,0,1.58-1.41A7.19,7.19,0,0,0,115.55,121.52Z"/></g><path class="cls-72" d="M54.72,89.26s-13.51,28.93-8.51,39.64c6.52,13.94,53.6-3.84,53.6-3.84"/><path class="cls-26" d="M60.74,81.4c-7.14,4.93-20,36.61-15,47.31"/><path class="cls-22" d="M52.91,123.43l.13,0,1.59,2,.56,3.6-3.06,5.1-9.59,2.64-3.16-2-2-1.34-.52-1.81.45-1.31,1.26-3,7-2.57h2.93Z"/><path class="cls-27" d="M57.42,126.78a6.18,6.18,0,0,0-4.35-3.29c.34,1.15.92,2.3,1.28,3.44a.58.58,0,0,0,0,.16,4.43,4.43,0,0,1,0,2.5A4.38,4.38,0,0,1,53,131.68a17.1,17.1,0,0,1-4.72,2.76,21.2,21.2,0,0,1-4.63,1.28,5.25,5.25,0,0,1-5.76-3.52v0c-.25-.78-.49-1.56-.73-2.35a5.79,5.79,0,0,0-.79,5.25c1.46,3.7,7.22,4.77,13.12,2.45S58.87,130.47,57.42,126.78Z"/><path class="cls-73" d="M250.82,81.27a11.77,11.77,0,0,1-.32,5,1.91,1.91,0,0,1-.44.8,2,2,0,0,1-.75.51,1.89,1.89,0,0,1-.91.13,1.94,1.94,0,0,1-.86-.31l-2.77-1.79a2.57,2.57,0,0,1-.41,1.4,2.41,2.41,0,0,1-.85.83,6.83,6.83,0,0,1-2,.54l-.33.06a1,1,0,0,1-.75-.15,1,1,0,0,1-.44-.62l-.08-.32a7.09,7.09,0,0,1-.33-2,2.62,2.62,0,0,1,.41-1.11,2.53,2.53,0,0,1,1.12-1l-2.76-1.78a2,2,0,0,1-.64-.66,1.94,1.94,0,0,1-.25-.88,1.87,1.87,0,0,1,.16-.9,2,2,0,0,1,.55-.73A11.69,11.69,0,0,1,242.63,76a12.46,12.46,0,0,1,8.14-5.79,1.67,1.67,0,0,1,1.25.24,1.69,1.69,0,0,1,.73,1C253.22,73.3,253.54,77,250.82,81.27Zm-9.44,5.62a5.16,5.16,0,0,0,1.39-.35.84.84,0,0,0,.3-.32,1,1,0,0,0-.31-1.46,1.1,1.1,0,0,0-.79-.15,1.07,1.07,0,0,0-.67.46.88.88,0,0,0-.17.41A5.22,5.22,0,0,0,241.38,86.89Zm9.74-15.18H251A11.09,11.09,0,0,0,243.83,77l-.05.08c0,.06-.07.12-.1.19a2.48,2.48,0,0,1-.18.31A36.79,36.79,0,0,0,241.86,81l0,.1a.76.76,0,0,1-.06.16l0,0,0,.09a.56.56,0,0,0,0,.12v0l0,.07a.94.94,0,0,0,0,.16L246,84.58a27.24,27.24,0,0,0,3.48-4,11.11,11.11,0,0,0,1.82-8.71.11.11,0,0,0,0-.07s0,0,0,0Zm-12.06,8.35a.35.35,0,0,0,.13.14l1.05.67,0,0,.05-.14s0-.08,0-.12l0-.1.06-.16.09-.22.07-.18,0-.07a.52.52,0,0,1,.06-.13l.08-.2,0-.06a.75.75,0,0,1,.06-.13l.1-.22A.27.27,0,0,1,241,79q.24-.51.48-1a11.2,11.2,0,0,0-2.35,1.51.4.4,0,0,0-.12.16.34.34,0,0,0,0,.2A.41.41,0,0,0,239.06,80.06Zm9.5,6.15a.46.46,0,0,0,.2,0,.58.58,0,0,0,.15-.11.32.32,0,0,0,.09-.17,10.36,10.36,0,0,0,.41-2.76,21.79,21.79,0,0,1-2.09,2.31l1.06.69A.43.43,0,0,0,248.56,86.21Zm-1-6.48a2.29,2.29,0,0,1-1.27-.36,2.22,2.22,0,0,1-.64-.62,2.23,2.23,0,0,1-.37-1.71,2.19,2.19,0,0,1,.33-.83,2.28,2.28,0,0,1,3.5-.39,2.27,2.27,0,0,1,.53,2.47,2.26,2.26,0,0,1-.82,1A2.35,2.35,0,0,1,247.52,79.73Zm.82-2.64a.87.87,0,0,0-.35-.41.85.85,0,0,0-.34-.14,1.09,1.09,0,0,0-.36,0,1.14,1.14,0,0,0-.34.15.89.89,0,0,0-.25.26.93.93,0,0,0,.43,1.37.91.91,0,0,0,.54.05,1,1,0,0,0,.47-.26.89.89,0,0,0,.25-.48A.91.91,0,0,0,248.34,77.09Z"/><path class="cls-28" d="M212.28,46.25l-1.61-1.77a.85.85,0,0,0-1.19-.06L207.71,46a.84.84,0,0,0-.06,1.19L209.26,49a.84.84,0,0,0,1.19.06l1.77-1.61A.84.84,0,0,0,212.28,46.25Z"/><path class="cls-28" d="M161.13,19.6l-1.61-1.77a.85.85,0,0,0-1.19-.06l-1.77,1.61a.84.84,0,0,0-.05,1.19l1.61,1.77a.84.84,0,0,0,1.19.06l1.77-1.61A.84.84,0,0,0,161.13,19.6Z"/><path class="cls-28" d="M363.2,121.32l-2.41-2.66a1.27,1.27,0,0,0-1.79-.08L356.35,121a1.27,1.27,0,0,0-.09,1.79l2.42,2.65a1.25,1.25,0,0,0,1.78.09l2.66-2.42A1.26,1.26,0,0,0,363.2,121.32Z"/><path class="cls-74" d="M481.69,138.18l-3.1-3.4a1.62,1.62,0,0,0-2.29-.11l-3.4,3.09a1.62,1.62,0,0,0-.11,2.3l3.09,3.4a1.63,1.63,0,0,0,2.29.11l3.41-3.1A1.63,1.63,0,0,0,481.69,138.18Z"/><path class="cls-74" d="M366.35,115.39A2.35,2.35,0,1,0,364,113,2.35,2.35,0,0,0,366.35,115.39Z"/><path class="cls-75" d="M14.15,133.45a4.3,4.3,0,1,0-4.29-4.3A4.3,4.3,0,0,0,14.15,133.45Z"/><path class="cls-75" d="M204.74,61a3.13,3.13,0,1,0-3.12-3.12A3.13,3.13,0,0,0,204.74,61Z"/><path class="cls-76" d="M530.67,321.58a165.9,165.9,0,0,0-33.83,3.72,2.74,2.74,0,0,0-1.56,1,2.71,2.71,0,0,0-.57,1.75,246.23,246.23,0,0,0,3.6,34.49c3.32,17.82,12.65,29.72,23.07,29.72H540c10.42,0,19.74-11.9,23.06-29.72a243.14,243.14,0,0,0,3.6-34.47,2.7,2.7,0,0,0-2.14-2.75A171.82,171.82,0,0,0,530.67,321.58Z"/><g class="cls-77"><path class="cls-78" d="M554.45,213.18a5.73,5.73,0,0,0-5.11-3.31c-1.52.11-2.83,1-4.28,1.47s-3.32.27-4-1.11a2.79,2.79,0,0,1-.19-1.11,2.62,2.62,0,0,1,.27-1.1,4.4,4.4,0,0,1,1.36-1.8,4.46,4.46,0,0,1,2-.93,4.4,4.4,0,0,1,2.25.17,4.63,4.63,0,0,1,1.9,1.23,11.56,11.56,0,0,0-8.54-6.43c-3.1-.54-8.32.1-10.76,2.36-2,1.84-1.68,5.18-1,7.94a7.28,7.28,0,0,1-1.33.81c-1.53.7-3.25.93-4.83,1.51a9.73,9.73,0,0,0-5.87,10.84c1.24,6.07,6.76,12.55,12.89,13.43-1.79-.25-1.86-4.5-.51-6.83s4.12-2.78,4.24,1.65c0,.74-.12,1.47-.07,2.21.15,2.21,2.15,3.95,4.3,4.53a15.14,15.14,0,0,0,6.63-.22,22.7,22.7,0,0,0-3-3.63,5.32,5.32,0,0,1-1.22-1.94,5.21,5.21,0,0,1-.29-2.28c1.1.16,1.47,1.42,2,2.32,1.88,3,5.84,1.55,8.54.91,3.12-.74,6.79-1.57,9.21.54a26.13,26.13,0,0,0-1.8-6.44,8.6,8.6,0,0,0-4.68-4.56,23.18,23.18,0,0,1-3.91-1.1c-2.59-1.42-1.4-4,1.2-4.18,2.31-.13,5.41,1.41,6,3.74C555.25,218.94,556,216.08,554.45,213.18Z"/><path class="cls-79" d="M528.8,211.45c4.34.2,7.66,6.52,10.13,9.44a19.13,19.13,0,0,0,7.12,5.84c.3.12.47-.34.22-.5-4-2.58-6.75-5.88-9.7-9.58-2-2.52-4.2-5.79-7.73-5.68a.19.19,0,0,0-.14.09.2.2,0,0,0-.06.15.22.22,0,0,0,.06.15.28.28,0,0,0,.14.09Z"/><path class="cls-80" d="M525.93,226a3.08,3.08,0,0,1,.53-1.91c.11-.21-.19-.47-.35-.28a3.64,3.64,0,0,0-.89,2.21.36.36,0,0,0,.71,0Z"/><path class="cls-79" d="M527.7,221.82c1.58-2.56,6.63-5.39,5.34-9a.33.33,0,0,0-.12-.14.29.29,0,0,0-.18,0,.3.3,0,0,0-.16.08.24.24,0,0,0-.07.16,8.56,8.56,0,0,1-2.72,5.53,12.46,12.46,0,0,0-2.37,3.31l0,.06a.13.13,0,0,0,0,.06.09.09,0,0,0,0,.06l0,0,.06,0h.06a.09.09,0,0,0,.06,0s0,0,0,0Z"/><path class="cls-79" d="M535.59,224.28c.72-2.13,2.21-5,.87-7.13-.15-.27-.64-.09-.52.22.89,2.21.23,4.65-.37,6.9Z"/><path class="cls-79" d="M549.19,215.42a9.28,9.28,0,0,0-5.3.07c-2.57.69-4.73,2.21-7.44,1.19-.47-.17-.7.51-.33.77a4.75,4.75,0,0,0,4.32.24c3-.94,5.45-2.67,8.72-2.21.07,0,.1-.08,0-.1Z"/><path class="cls-79" d="M539.28,204.54a9.88,9.88,0,0,0-3.07,3.48c-.33.61-.56,1.26-.84,1.88a6.76,6.76,0,0,1-2.62,2.76c-.74.52,0,1.75.71,1.23a6.8,6.8,0,0,0,3-3.48,10.1,10.1,0,0,1,3.08-5.53c.17-.14,0-.44-.23-.31Z"/><path class="cls-79" d="M542.65,227.51a13.74,13.74,0,0,1-1.1-4.42.3.3,0,0,0-.09-.13.22.22,0,0,0-.15-.06.2.2,0,0,0-.15.06.2.2,0,0,0-.09.13,6.49,6.49,0,0,0,1.11,4.66c.18.33.66,0,.49-.29Z"/></g><path class="cls-81" d="M545.39,179.78c-1.42-4.12-4-9-8.95-6.26-6.38,3.51-4.35,13.91-4.42,19.5-.59,29.28-2.21,111.21.94,140.35a.67.67,0,0,0,.21.5.71.71,0,0,0,.5.21.75.75,0,0,0,.5-.21.7.7,0,0,0,.2-.5c.37-19-.35-89.88-.48-108.88q-.09-13.28.11-26.63c.06-4.92.11-9.85.26-14.78.07-2-.28-5.07,1.67-6.44,2.71-1.89,7.07.78,8.43,3.59a.61.61,0,0,0,.33.32.58.58,0,0,0,.45,0,.58.58,0,0,0,.33-.32.61.61,0,0,0,0-.46Z"/><path class="cls-81" d="M515.55,170.68c6.23,14.72,6.83,33.8,8.6,49.51,1.7,15,2.32,97.84,3.81,112.88a.63.63,0,0,0,.2.47.67.67,0,0,0,.47.19.7.7,0,0,0,.47-.19.67.67,0,0,0,.19-.47c.18-17.27-1.7-102.43-3.88-119.55-1.81-14.24-2.55-30.45-8.43-43.68C516.55,168.87,515.14,169.72,515.55,170.68Z"/><path class="cls-81" d="M507.94,192.87c5.52,3.51,5.9,11.27,6.93,16.91s1.89,11.05,2.72,16.57c1.63,11.05,2.44,96.5,4.2,107.49.13.79,1.37.58,1.36-.18-.15-13.94-2.4-102.44-4.89-116.14-1.46-8.09-1.62-21-9.59-25.84-.8-.49-1.5.74-.73,1.23Z"/><path class="cls-81" d="M548.62,219.72c-6.16-1-7,13.76-7.74,17.33-2.83,13.15-5.28,82.3-4.42,95.75a.3.3,0,0,0,.09.21.32.32,0,0,0,.42,0,.3.3,0,0,0,.09-.21c.5-6.15,3.4-113.57,11.54-112.72a.17.17,0,0,0,0-.33Z"/><path class="cls-82" d="M565.51,188A8.45,8.45,0,0,0,564.3,186a4.92,4.92,0,0,0-2.21-1.66,8.85,8.85,0,0,0-2.34-.26,10.85,10.85,0,0,1-3.07-.69c-.72-.28-1.52-.77-1.62-1.57a1.84,1.84,0,0,1,.81-1.58,3.4,3.4,0,0,1,3.31-.43c.62.27,1.11.71,1.76,1a2,2,0,0,0,1.92,0,1.7,1.7,0,0,0,.54-.94,1.65,1.65,0,0,0-.15-1.07,4.68,4.68,0,0,0-1.43-1.66,25,25,0,0,0-5.2-3.63,10.09,10.09,0,0,0-6.18-1,6.31,6.31,0,0,0-4.72,3.84,11.3,11.3,0,0,1-.69,1.95,4.45,4.45,0,0,1-2.49,1.73,14.61,14.61,0,0,1-3.7.78,9.15,9.15,0,0,0-3.32.54,5,5,0,0,0-1.94,1.83,11,11,0,0,0-1.54,7.5,17.81,17.81,0,0,0,2.78,7.25,8.19,8.19,0,0,0,1.85,2.21,6.58,6.58,0,0,0,3.67,1.32c.92-.25.37-1.51,0-2a4.64,4.64,0,0,1-1-1.91,4.72,4.72,0,0,1-.06-2.18c.4-1.28,1.55-.88,2.45.3,1.92,2.53-.47,3.74,2.1,7.25a13.24,13.24,0,0,0,4.56,2.62c.67.08,1.78.56,2.38.07.9-.77-.6-2.1-1-2.7a5.55,5.55,0,0,1-1.1-2.82c0-.23.19-2.13.14-2.15,1,.5.83,1.74,1.16,2.62.64,1.65,2.89,2.21,4.42,2.4s3,0,4.42.22a8.1,8.1,0,0,1,3.39,1.4,1.76,1.76,0,0,0,1,.44c.81,0,1-1.1,1-1.94-.24-3.16-1-6.63-3.52-8.51a8.59,8.59,0,0,1-1.3-1,1.51,1.51,0,0,1-.36-1.55c.38-.87,1.72-.79,2.46-.19s1.11,1.54,1.85,2.21,2,.89,2.52.09a1.87,1.87,0,0,0,.25-.73A9.09,9.09,0,0,0,565.51,188Z"/><path class="cls-83" d="M545.57,179.5c3.66,1.37,4.52,7.57,5.83,10.8a17.05,17.05,0,0,0,3.86,6.13c.12.12.3-.06.19-.19-3.05-3.55-4.18-7.74-5.86-12-.84-2.11-1.67-4.22-4-5C545.49,179.23,545.43,179.45,545.57,179.5Z"/><path class="cls-83" d="M539.15,190.46a2.74,2.74,0,0,1,1-1.4.11.11,0,0,0-.13-.17,2.91,2.91,0,0,0-1.19,1.44.14.14,0,0,0,0,.06.19.19,0,0,0,0,.07.09.09,0,0,0,0,0l.06,0h.13l.05,0A.1.1,0,0,0,539.15,190.46Z"/><path class="cls-83" d="M541.8,187.55c2-1.73,6.43-2.47,6.63-5.73,0-.17-.22-.18-.27,0-1.1,3.18-4.33,3.57-6.52,5.68-.07.06,0,.16.12.1Z"/><path class="cls-83" d="M547.51,191.76c1.17-1.57,2.85-3.37,2.54-5.46,0-.15-.28-.12-.27,0,.15,2-1.17,3.83-2.28,5.42Z"/><path class="cls-83" d="M560.77,188.34a7.37,7.37,0,0,0-3.91-1.25c-2.26-.15-4.84.62-6.7-1.1a.17.17,0,0,0-.14-.06.2.2,0,0,0-.14.06.17.17,0,0,0-.06.14.2.2,0,0,0,.06.14,3.88,3.88,0,0,0,1.5,1,4,4,0,0,0,1.81.27c2.62,0,5.11-.62,7.53.79Z"/><path class="cls-83" d="M555.82,177a8.45,8.45,0,0,0-3.15,1.82,15.35,15.35,0,0,0-1.1,1.18,6.07,6.07,0,0,1-3.22,1.91c-.42.14-.23.8.19.67a6,6,0,0,0,3.15-1.8,9.48,9.48,0,0,1,4.14-3.61c.11,0,.07-.22-.05-.17Z"/><path class="cls-83" d="M552.16,196.24a9.18,9.18,0,0,1,.34-3.79c0-.12-.16-.22-.22-.09a6.13,6.13,0,0,0-.38,4C551.9,196.49,552.2,196.42,552.16,196.24Z"/><path class="cls-84" d="M500.66,193.17l-.72,0A15.33,15.33,0,0,0,491.1,197a38.2,38.2,0,0,0-6.39,7.39,7.32,7.32,0,0,0-1.49,3,2.6,2.6,0,0,0,1.36,2.85,2.79,2.79,0,0,0,.76.11,2.92,2.92,0,0,0,.77-.11,2.89,2.89,0,0,0,1.32-.76c.77-.7,1.39-1.58,2.21-2.21a5.32,5.32,0,0,1,2.48-1,4.21,4.21,0,0,1,.62,0,5.39,5.39,0,0,1,2,.4,2.77,2.77,0,0,1,1.17.79,2.8,2.8,0,0,1,.65,1.27c.15,1.2-.84,2.24-1.84,2.95a15.87,15.87,0,0,1-4.29,2.21,14.91,14.91,0,0,0-3.4,1.3,7.41,7.41,0,0,0-2.58,3.32,13.52,13.52,0,0,0-1.05,3.51,14.24,14.24,0,0,0,1.17,8.09,3.27,3.27,0,0,0,.66,1,1.65,1.65,0,0,0,1.14.42A3.4,3.4,0,0,0,489,230c.82-1.22,1.07-2.76,1.93-3.95a3.15,3.15,0,0,1,2.41-1.29,1.65,1.65,0,0,1,1.34.61,2.39,2.39,0,0,1,0,2.46,12.9,12.9,0,0,1-1.56,2c-3.09,3.8-2.83,9.22-2,14,.22,1.14.88,2.57,1.93,2.57a1,1,0,0,0,.28,0,2.6,2.6,0,0,0,1.29-1,12.74,12.74,0,0,1,4.53-3.4c2.11-.91,4.22-1.16,6.53-2s5.45-2.57,5.77-5.28c.17-1.43-.54-3.24.72-4.34-.07.05,1,2.78,1,3.15a8.74,8.74,0,0,1-.55,4.63c-.42,1.1-2.15,3.63-.51,4.42a1.37,1.37,0,0,0,.6.12c1,0,2.13-.83,2.92-1.12a20.38,20.38,0,0,0,5.82-5.66c2.46-6.21-1.55-7.09.35-11.61.58-1.36,1.42-2.27,2.25-2.27a1.59,1.59,0,0,1,1.29.9c1.25,1.93.85,4.39,0,6.51-.34.85-.7,3,.64,3h.12c1.48-.13,4.07-2.21,5-3.38a12.69,12.69,0,0,0,1.92-4,27.29,27.29,0,0,0,1.38-11.86,17.14,17.14,0,0,0-5.25-10.54,7.93,7.93,0,0,0-3.62-2c-.44,0-.89-.06-1.33-.06a14.36,14.36,0,0,0-3.75.5,21.47,21.47,0,0,1-3.83.34q-1,0-2-.09a6.93,6.93,0,0,1-4.42-1.62,16.37,16.37,0,0,1-1.78-2.65,9.71,9.71,0,0,0-7.78-3.94Z"/><path class="cls-83" d="M509.76,201.51c-2.69,1.74-3.51,4.42-4,7.52-1.16,7.42-.64,14.62-4.14,21.51a.12.12,0,0,0,0,.1.1.1,0,0,0,.06.08.12.12,0,0,0,.1,0,.14.14,0,0,0,.08-.07,27.45,27.45,0,0,0,3.32-10.47c.76-5.38-.46-15,4.65-18.49.12-.08,0-.28-.11-.2Z"/><path class="cls-85" d="M524.05,215.43a4.39,4.39,0,0,0-2.31-1.73c-.11,0-.2.14-.08.2a4.5,4.5,0,0,1,2.09,1.71C523.87,215.79,524.18,215.61,524.05,215.43Z"/><path class="cls-85" d="M518.71,212.16c-4-2.21-9.3-1.52-11.92-6-.08-.13-.3,0-.24.11,1.72,4.7,8.35,4.1,12.09,6h.05a.08.08,0,0,0,0,0,0,0,0,0,0,0,0S518.73,212.18,518.71,212.16Z"/><path class="cls-85" d="M511.28,220.68c-2.21-1.88-5.11-4.11-5.53-7.18,0-.15-.29-.12-.27,0,.15,3.12,3.61,5.38,5.8,7.16Z"/><path class="cls-85" d="M490.18,220.79c3-3.08,7-3.08,10.9-4.16,1.88-.53,3.54-1.31,4.42-3.14a.26.26,0,0,0,0-.15.22.22,0,0,0-.1-.13.26.26,0,0,0-.15,0,.22.22,0,0,0-.13.1c-2,3.32-6.33,3.16-9.64,4.2a11.15,11.15,0,0,0-5.36,3.32Z"/><path class="cls-85" d="M493.48,201.47c3.26.39,5.13,1.83,7.63,3.71a9.24,9.24,0,0,0,5.32,1.43.34.34,0,0,0,.24-.11.34.34,0,0,0,0-.48.37.37,0,0,0-.24-.1,9.07,9.07,0,0,1-5-1.25c-.89-.6-1.68-1.31-2.63-1.84a12.87,12.87,0,0,0-5.34-1.55A.1.1,0,0,0,493.48,201.47Z"/><path class="cls-83" d="M506.82,229.25a9.32,9.32,0,0,0-2-5.72c-.09-.09-.26,0-.19.16a12.9,12.9,0,0,1,2,5.53c0,.17.28.17.27,0Z"/><path class="cls-86" d="M537.89,219.65a11.94,11.94,0,0,1,14-5.66c2,.68,3.77,1.8,5.77,2.36a8.62,8.62,0,0,0,1.89.27c1.52-3.15,3.82-6.58,7.17-6.74,4.09-.21,9.54,3.31,12,6.23a11.1,11.1,0,0,1,3.11,7,2.31,2.31,0,0,1-.34,1.49,2.26,2.26,0,0,1-1.91.65,10.53,10.53,0,0,0-2.1-.12,2.8,2.8,0,0,0-1.46.72,2.85,2.85,0,0,0-.84,1.4,3.39,3.39,0,0,0,.81,3.08,5.35,5.35,0,0,0,1,.86,9.43,9.43,0,0,1,2.82,1.22,6.64,6.64,0,0,1,1.85,2.38,6.56,6.56,0,0,1,.58,3,13.08,13.08,0,0,1-1.44,4.81c-.42,1.11-2.09,6-3.94,4.34a2.21,2.21,0,0,1-.5-1.41c-.19-1.43-.84-3-2.21-3.48A2.47,2.47,0,0,0,573,242a2.33,2.33,0,0,0-1.82,1.76,2.46,2.46,0,0,0,0,1.32,7,7,0,0,0,.93,1.61,7.84,7.84,0,0,1,1.18,3.15,11.59,11.59,0,0,1,0,6.13,31.75,31.75,0,0,1-3.31,7.52c-.63-3.89-4.75-6-8.29-7.74-3.07-1.52-7.92-3.31-7.38-7.58.16-1.31.77-2.83-.11-3.81-1.47,1.21-1.89,3.32-1.88,5.21,0,1.1.11,2.14.13,3.21,0,.53.32,1.88-.42,2.11a1,1,0,0,1-.66-.13,14.79,14.79,0,0,1-5.53-4.48c-1.59-2.21-2.1-5.44-.49-7.67.51-.74,1.23-1.31,1.8-2,3.31-4.3.38-6.07-2.73-4.91a8.4,8.4,0,0,0-3.32,2.21,6.18,6.18,0,0,0-1.1,1.91c-.2.53-.11,1.3-.54,1.72-1.11,1.1-2-1.9-2.28-2.45a19,19,0,0,1-1.33-4,23.84,23.84,0,0,1-.19-8.71A21.3,21.3,0,0,1,537.89,219.65Z"/><path class="cls-87" d="M559.31,217.69c4.1,4,2.14,12.82,2.22,17.87a24.64,24.64,0,0,0,2.09,10.19.28.28,0,0,0,.5-.22c-2.06-6.27-1.64-12.16-1.67-18.61,0-3.63.07-7.08-2.84-9.56-.23-.19-.55.12-.34.33Z"/><path class="cls-87" d="M545,229.34a4.62,4.62,0,0,1,2-1.41.21.21,0,0,0,.14-.1.25.25,0,0,0,0-.17.19.19,0,0,0-.1-.13.25.25,0,0,0-.17,0,4.13,4.13,0,0,0-2.43,1.34C544.2,229.17,544.73,229.69,545,229.34Z"/><path class="cls-87" d="M550.07,226.68c3.44-1.16,10.49,0,12.15-4.42.1-.26-.28-.45-.45-.26a9.4,9.4,0,0,1-6.17,3.05,20.14,20.14,0,0,0-5.63,1.3c-.17.07,0,.35.12.29Z"/><path class="cls-87" d="M556,235.23c2.21-1.4,6-3.13,6.38-6.11a.3.3,0,0,0-.58-.08c-.89,2.82-3.49,4.56-5.81,6.16Z"/><path class="cls-87" d="M575.9,237.56a11.14,11.14,0,0,0-5.31-4.12c-2.92-1.27-6.13-1.59-7.79-4.63a.44.44,0,0,0-.23-.18.41.41,0,0,0-.29,0,.36.36,0,0,0-.21.19.42.42,0,0,0,0,.29c.48,2,2.28,3,4.05,3.65,3.47,1.36,7.24,1.79,9.74,4.84C575.82,237.62,575.94,237.62,575.9,237.56Z"/><path class="cls-87" d="M575.14,219.39a12.34,12.34,0,0,0-5.78,1c-1,.42-1.8,1-2.77,1.4a9.76,9.76,0,0,1-4.13.26c-.9-.07-.9,1.34,0,1.41a9,9,0,0,0,5-.7c1.05-.59,1.89-1.43,3-2a12,12,0,0,1,4.71-1,.26.26,0,0,0,.11-.07.19.19,0,0,0,0-.12.2.2,0,0,0,0-.13A.26.26,0,0,0,575.14,219.39Z"/><path class="cls-87" d="M559.67,243.88c.41-2,1.5-3.32,2.42-5,.11-.21-.12-.48-.34-.34-1.6,1.1-2.34,3.4-2.63,5.2C559.12,244.08,559.6,244.24,559.67,243.88Z"/><path class="cls-82" d="M542,269.22a15,15,0,0,0-10.5-15.57c-2.48-.7-5.1-.84-7.53-1.68a11,11,0,0,1-2.12-1.11c.62-4.23.63-9.29-2.68-11.82-4-3.09-12-3.42-16.65-2.21-3.15.82-6.07,2.14-8,4.84a2.79,2.79,0,0,0-.66,1.72,2.73,2.73,0,0,0,.5,1.19,2.83,2.83,0,0,0,1,.82,12.81,12.81,0,0,1,2.21,1.35,3.57,3.57,0,0,1,.9,3.75,4.14,4.14,0,0,1-1.16,1.64,4,4,0,0,1-1.79.89,7.15,7.15,0,0,1-1.66.13,11.13,11.13,0,0,0-3.74-.76,8,8,0,0,0-3.52,1.08,7.73,7.73,0,0,0-2.64,2.57c-1.22,1.73-1.4,3.82-1.86,5.84-.31,1.38-2,7.51,1.05,7.12a2.62,2.62,0,0,0,1.48-1.11c1.18-1.3,2.94-2.42,4.66-1.93a3.09,3.09,0,0,1,2.21,2.31,3,3,0,0,1-.14,1.61,3.1,3.1,0,0,1-1,1.3,8.67,8.67,0,0,1-2.07,1,9.49,9.49,0,0,0-3.37,2.33,13.9,13.9,0,0,0-4.25,6.13,37.87,37.87,0,0,0-1.75,9.95c3.32-3.47,9-2.68,13.83-1.95,4.19.63,10.39,2.21,12.78-2.41.73-1.43,1.16-3.38,2.74-3.74.69,2.21-.33,4.63-1.66,6.54-.74,1.11-1.59,2.07-2.35,3.13-.39.53-1.63,1.67-1,2.42a1.26,1.26,0,0,0,.78.34,18.12,18.12,0,0,0,8.74-.62c3.17-1.1,5.91-4,5.81-7.34,0-1.1-.37-2.21-.44-3.31-.49-6.63,3.78-6.37,6.16-3a10.07,10.07,0,0,1,1.85,4.54,7.5,7.5,0,0,1-.21,2.67c-.17.66-.8,1.38-.64,2.11.37,1.82,3.37-.49,4-.86a22.7,22.7,0,0,0,4.13-3.09,28.32,28.32,0,0,0,6.21-8.62A25.72,25.72,0,0,0,542,269.22Z"/><path class="cls-87" d="M528.06,273.89A5.76,5.76,0,0,0,527,271a.28.28,0,0,1,0-.18.27.27,0,0,1,.1-.16.27.27,0,0,1,.17-.06.28.28,0,0,1,.18.06,5.17,5.17,0,0,1,1.56,3.05c.11.56-.8.71-.85.15Z"/><path class="cls-83" d="M521.42,252.18c-6.92,1.1-11,11.36-14.63,16.34a29.17,29.17,0,0,1-9.17,8.76c-.32.18-.67-.35-.37-.58,6.43-4.83,10.08-11.05,14.56-17.5,2.52-3.63,4.82-7.14,9.5-7.58C521.69,251.62,521.8,252.12,521.42,252.18Z"/><path class="cls-83" d="M524.39,267.8c-2.73-3.59-10.75-7.36-9.4-12.92.08-.34.61-.27.65.05a11.73,11.73,0,0,0,4.21,7.4,25.12,25.12,0,0,1,4.86,5.28C524.84,267.78,524.53,268,524.39,267.8Z"/><path class="cls-83" d="M512.75,272.16c-1.35-3-4-7.38-2.31-10.62.18-.35.74,0,.63.32-1,3.46.43,7,1.7,10.29Z"/><path class="cls-83" d="M490.83,260.55a13.81,13.81,0,0,1,8.29-.4c3.87.78,7.37,2.71,11.17.83a.5.5,0,0,1,.36,0,.49.49,0,0,1,.28.21.48.48,0,0,1,.08.35.56.56,0,0,1-.15.32c-1.85,1.63-4.42,1.37-6.63.82-4.5-1.11-8.66-3.32-13.32-2l0,0a0,0,0,0,1,0,0s0,0,0,0l0,0Z"/><path class="cls-83" d="M504.07,243a15.78,15.78,0,0,1,5.22,5.09,35.56,35.56,0,0,0,1.87,3.32,12.14,12.14,0,0,0,4,3.17c1,.56,0,2-1,1.41a11.2,11.2,0,0,1-4.61-4.18c-.66-1.34-.93-2.78-1.71-4.09a15.22,15.22,0,0,0-4.11-4.35.24.24,0,0,1-.09-.15.24.24,0,0,1,.19-.27.2.2,0,0,1,.17,0Z"/><path class="cls-83" d="M503,278.18c1-2.31.71-4.33,1-6.73a.42.42,0,0,1,.08-.18.38.38,0,0,1,.18-.09.32.32,0,0,1,.19,0,.32.32,0,0,1,.14.14c.89,2.21,0,5-.9,7.07C503.45,278.82,502.78,278.6,503,278.18Z"/><path class="cls-88" d="M532.16,176.72a9.82,9.82,0,0,0-6.83-10.42c-1.64-.46-3.38-.55-5-1.1a7.58,7.58,0,0,1-1.39-.71c.45-2.84.52-6.23-1.66-7.92-2.66-2.07-8-2.21-11-1.46a9.2,9.2,0,0,0-5.38,3.25,1.85,1.85,0,0,0-.47,1.16,1.94,1.94,0,0,0,.32.79,1.78,1.78,0,0,0,.65.54,7.86,7.86,0,0,1,1.47.91,2.28,2.28,0,0,1,.65,1.17,2.35,2.35,0,0,1-.09,1.34,2.81,2.81,0,0,1-2,1.7,5.2,5.2,0,0,1-1.11.09,7.46,7.46,0,0,0-2.47-.51,5.36,5.36,0,0,0-2.37.74,5.29,5.29,0,0,0-1.78,1.71,11.11,11.11,0,0,0-1.29,3.92c-.22.92-1.43,5,.62,4.77a1.87,1.87,0,0,0,1-.71,3.33,3.33,0,0,1,3.13-1.3,2,2,0,0,1,1.42,1.54,2.05,2.05,0,0,1-.11,1.07,2,2,0,0,1-.64.88,5.48,5.48,0,0,1-1.39.64,6.78,6.78,0,0,0-2.26,1.56,9.53,9.53,0,0,0-2.9,4.12,25.92,25.92,0,0,0-1.27,6.63c2.21-2.32,6-1.8,9.22-1.32,2.78.42,6.88,1.51,8.53-1.63.5-1,.81-2.26,1.87-2.52a5.32,5.32,0,0,1-1.18,4.42c-.5.73-1.1,1.4-1.61,2.1-.25.36-1.1,1.11-.71,1.63a.87.87,0,0,0,.23.16.71.71,0,0,0,.28.06,12.26,12.26,0,0,0,5.83-.42c2.11-.75,4-2.68,3.94-4.92,0-.75-.22-1.47-.26-2.21-.25-4.48,2.58-4.27,4.14-2a6.6,6.6,0,0,1,1.17,3.05,4.86,4.86,0,0,1-.16,1.78c-.13.44-.55.93-.46,1.41.23,1.22,2.21-.33,2.69-.58a15.27,15.27,0,0,0,2.78-2.08,19.63,19.63,0,0,0,4.24-5.78A17.57,17.57,0,0,0,532.16,176.72Z"/><path class="cls-86" d="M518.61,164.92c-3.4.18-5.21,3.23-7,5.8-2.81,4.14-5.3,8-9.33,11.05a.27.27,0,0,0-.1.17.24.24,0,0,0,0,.2.26.26,0,0,0,.15.12.27.27,0,0,0,.2,0,19.45,19.45,0,0,0,6.7-6.52c2.32-3.32,5-9.75,9.33-10.31.3,0,.31-.49,0-.47Z"/><path class="cls-86" d="M523.45,179.74a3.41,3.41,0,0,0-1-2,.2.2,0,0,0-.14-.06.26.26,0,0,0-.23.17.25.25,0,0,0,0,.15,3.51,3.51,0,0,1,.7,1.87.32.32,0,0,0,0,.14.27.27,0,0,0,.09.12.35.35,0,0,0,.13.08.38.38,0,0,0,.15,0,.39.39,0,0,0,.14-.05.52.52,0,0,0,.11-.1.58.58,0,0,0,.05-.14A.26.26,0,0,0,523.45,179.74Z"/><path class="cls-86" d="M520.89,175.59a14.57,14.57,0,0,0-3-3.45,8.2,8.2,0,0,1-2.82-5c0-.28-.46-.24-.53,0-1.1,3.7,4.37,6.26,6.14,8.64C520.74,175.89,521,175.74,520.89,175.59Z"/><path class="cls-86" d="M512.9,178.87c-.79-2.21-1.66-4.56-1-6.89.09-.31-.39-.52-.53-.22-1.11,2.29.55,5,1.47,7.12Z"/><path class="cls-86" d="M498.47,171.22c3.38-.83,6.1.91,9.3,1.51a4.57,4.57,0,0,0,2.11.12,4.63,4.63,0,0,0,1.94-.85c.4-.32-.11-.85-.51-.66-2.73,1.28-5.22-.25-7.93-.66a9,9,0,0,0-4.94.44v.1Z"/><path class="cls-86" d="M506.56,183a6.64,6.64,0,0,0,.69-4.78.32.32,0,0,0-.1-.13.45.45,0,0,0-.16,0,.28.28,0,0,0-.15.08.27.27,0,0,0-.07.14,14.06,14.06,0,0,1-.71,4.42c-.14.33.33.63.5.29Z"/><path class="cls-76" d="M498.48,327.91s30.82,8,64.65-.67v7.84H498.48Z"/><path class="cls-89" d="M497.35,328a58,58,0,0,0,11.27,2.39A143.39,143.39,0,0,0,523,331.48a176.42,176.42,0,0,0,29.33-1.4c2.21-.31,4.42-.67,6.55-1.18a27.33,27.33,0,0,0,5.23-1.63c.35-.17.1-.71-.25-.62a97.39,97.39,0,0,1-10.27,2.11c-4.53.66-9.1,1.05-13.67,1.28a194.07,194.07,0,0,1-29.43-.56,73,73,0,0,1-12.88-2.21.39.39,0,0,0-.3,0,.35.35,0,0,0-.18.23.39.39,0,0,0,0,.3.4.4,0,0,0,.24.18Z"/><path class="cls-89" d="M513.87,388.82a45.34,45.34,0,0,0,13.44,1.94,86.17,86.17,0,0,0,15.23-.77,19.78,19.78,0,0,0,6.23-1.58c.27-.13.08-.52-.19-.45-1.82.39-3.62.82-5.52,1.11-2.33.35-4.68.55-7,.67a98.39,98.39,0,0,1-15.16-.29,41.3,41.3,0,0,1-6.9-1.18h-.11l-.11,0-.09.07a.47.47,0,0,0,0,.1.24.24,0,0,0,0,.12.23.23,0,0,0,0,.11.3.3,0,0,0,.08.08.19.19,0,0,0,.1.05Z"/><path class="cls-90" d="M414.76,164.05a21.35,21.35,0,0,1,3.75.34,5.56,5.56,0,0,1,2.93,1.36,5,5,0,0,1,1.55,2.68,11.17,11.17,0,0,1,.13,3.91,7.53,7.53,0,0,1-1.39,3.52,14.56,14.56,0,0,1-2.36,2.28l-.53.46c-.78.69-1.62,1.36-2.36,2v-1a1.11,1.11,0,0,0-.35-.8,1.25,1.25,0,0,0-.85-.32,10.72,10.72,0,0,1-6.47-1.95,8.07,8.07,0,0,1-2.08-5.53c0-1.6.24-4.53,2.62-5.85A11.15,11.15,0,0,1,414.76,164.05Zm0-.93a12.51,12.51,0,0,0-5.85,1.18,7.49,7.49,0,0,0-2.5,2.95,6.93,6.93,0,0,0-.59,3.72,8.8,8.8,0,0,0,2.36,6.15,11.53,11.53,0,0,0,7.1,2.22.2.2,0,0,1,.15.06.17.17,0,0,1,.06.14v2.2a.36.36,0,0,0,.12.27.41.41,0,0,0,.28.11.32.32,0,0,0,.23-.09c1.15-.88,2.25-1.8,3.35-2.74a21.81,21.81,0,0,0,3-2.89,10.31,10.31,0,0,0,1.41-8.13,5.77,5.77,0,0,0-1.81-3.16,6.48,6.48,0,0,0-3.43-1.61A20.4,20.4,0,0,0,414.76,163.12Z"/><path class="cls-91" d="M335.5,161.12a2.08,2.08,0,0,1-1.42-.55l-1-.9c-.72-.66-1.47-1.34-2.2-2a26.66,26.66,0,0,1-3.53-3.91,13.72,13.72,0,0,1-1.26-2.24,5.21,5.21,0,0,1,.23-4.52,5.29,5.29,0,0,1,3.71-2.74,5.55,5.55,0,0,1,5.4,2,5.55,5.55,0,0,1,5.4-2,5.29,5.29,0,0,1,3.71,2.74,5.21,5.21,0,0,1,.23,4.52,13.09,13.09,0,0,1-1.27,2.24,26,26,0,0,1-3.52,3.91l-3,2.9A2.13,2.13,0,0,1,335.5,161.12ZM331.05,146a3.79,3.79,0,0,0-.67.06,3.39,3.39,0,0,0-2.38,1.77,3.26,3.26,0,0,0-.16,2.88,11.23,11.23,0,0,0,1.07,1.91,24.68,24.68,0,0,0,3.28,3.62c.71.68,1.45,1.35,2.17,2l1,.91a.22.22,0,0,0,.3,0l3-2.91a24.68,24.68,0,0,0,3.28-3.62,11.23,11.23,0,0,0,1.07-1.91,3.26,3.26,0,0,0-.16-2.88,3.39,3.39,0,0,0-2.38-1.77,3.55,3.55,0,0,0-4.12,2.52,1,1,0,0,1-1.86,0A3.48,3.48,0,0,0,331.05,146Z"/></g></g></svg>